<svg width="114" height="34" viewBox="0 0 114 34" fill="none" xmlns="http://www.w3.org/2000/svg">
<path d="M40.8684 9.24183C40.8684 6.20494 43.1666 3.7426 46.4086 3.7426C48.4196 3.7426 49.5276 4.52234 50.5126 5.46624L49.1172 7.06676C48.2964 6.32806 47.5988 5.87663 46.3676 5.87663C44.5619 5.87663 43.2897 7.35404 43.2897 9.20079C43.2897 11.0065 44.5619 12.525 46.3676 12.525C47.5988 12.525 48.3375 12.0325 49.1583 11.2938L50.6357 12.8943C49.5276 14.0844 48.3375 14.7 46.2855 14.7C43.1666 14.7411 40.8684 12.3198 40.8684 9.24183Z" fill="white"/>
<path d="M56.176 3.86584H58.351L62.9064 14.577H60.444L59.4591 12.1968H54.9448L53.9598 14.577H51.5796L56.176 3.86584ZM58.6383 10.1038L57.243 6.6565L55.8476 10.1038H58.6383Z" fill="white"/>
<path d="M64.5479 3.90675H68.6929C72.0171 3.90675 74.3563 6.20494 74.3563 9.24183C74.3563 12.2377 72.0581 14.5769 68.6929 14.5769H64.5479V3.90675ZM68.6929 12.4429C70.6217 12.4429 71.8939 11.1707 71.8939 9.24183C71.8939 7.35403 70.6217 6.04078 68.6929 6.04078H66.8872V12.4429H68.6929Z" fill="white"/>
<path d="M79.4862 9.03672C79.4862 5.99983 81.7844 3.53749 85.0265 3.53749C87.0374 3.53749 88.1454 4.31723 89.1304 5.26113L87.7351 6.86165C86.9143 6.12295 86.2166 5.67152 84.9854 5.67152C83.1797 5.67152 81.9075 7.14893 81.9075 8.99569C81.9075 10.8014 83.1797 12.3198 84.9854 12.3198C86.2166 12.3198 86.9553 11.8274 87.7761 11.0887L89.2535 12.6892C88.1454 13.8793 86.9553 14.4949 84.9034 14.4949C81.8254 14.536 79.4862 12.1557 79.4862 9.03672Z" fill="white"/>
<path d="M94.8348 3.66052H97.0099L101.565 14.3717H99.1029L98.118 11.9914H93.6037L92.6187 14.3717H90.2385L94.8348 3.66052ZM97.2972 9.89846L95.9019 6.45118L94.5065 9.89846H97.2972Z" fill="white"/>
<path d="M103.207 3.74257H105.71L108.501 8.25686L111.291 3.74257H113.795V14.3717H111.456V7.43608L108.46 11.9914H108.419L105.464 7.47712V14.3717H103.166V3.74257H103.207Z" fill="white"/>
<path d="M42.0997 18.0652H50.7589V19.2963H43.4539V23.4002H49.9792V24.6314H43.4539V28.8174H50.841V30.0486H42.0997V18.0652Z" fill="#B60214"/>
<path d="M53.5906 18.0652H54.8628L62.414 27.6683V18.0652H63.7273V30.0486H62.6602L54.9039 20.1992V30.0486H53.5906V18.0652Z" fill="#B60214"/>
<path d="M67.1335 18.0652H75.7927V19.2963H68.4878V23.4002H75.013V24.6314H68.4878V28.8174H75.8748V30.0486H67.1335V18.0652Z" fill="#B60214"/>
<path d="M78.6244 18.0652H83.7543C85.2317 18.0652 86.4218 18.5166 87.1605 19.2553C87.7351 19.8298 88.1044 20.6917 88.1044 21.6356C88.1044 23.6054 86.7502 24.7956 84.8624 25.1239L88.5559 30.0075H86.9143L83.426 25.3291H79.9787V30.0075H78.6244V18.0652ZM83.6312 24.18C85.4369 24.18 86.7091 23.2361 86.7091 21.6766C86.7091 20.1992 85.56 19.2963 83.6312 19.2963H79.9377V24.18H83.6312Z" fill="#B60214"/>
<path d="M90.4847 24.0569C90.4847 20.7738 92.906 17.86 96.5174 17.86C98.5283 17.86 99.8005 18.4346 100.991 19.4605L100.129 20.4865C99.185 19.6657 98.159 19.1322 96.4764 19.1322C93.8088 19.1322 91.921 21.3894 91.921 24.0979C91.921 26.9707 93.7678 29.1047 96.6816 29.1047C98.0359 29.1047 99.3081 28.5712 100.129 27.9146V24.9187H96.4764V23.6876H101.401V28.4481C100.293 29.433 98.6104 30.2948 96.5995 30.2948C92.7829 30.2538 90.4847 27.5452 90.4847 24.0569Z" fill="#B60214"/>
<path d="M107.68 25.3291L102.673 18.0652H104.315L108.378 24.0569L112.441 18.0652H114L108.993 25.288V30.0486H107.639V25.3291H107.68Z" fill="#B60214"/>
<path d="M25.8071 14.9464C26.4227 17.9012 25.684 21.1432 23.5089 23.5645C19.8975 27.6274 13.6596 27.9557 9.59669 24.3443C5.53382 20.7329 5.20551 14.4949 8.81694 10.4321C11.0331 7.92868 14.2341 6.86166 17.312 7.23101L21.9905 1.97802C15.9167 -0.402249 8.73487 1.11619 4.09745 6.24607C-1.81217 12.8534 -1.27866 23.0721 5.36966 29.0227C11.9769 34.9324 22.1957 34.3989 28.1463 27.7505C32.7017 22.6617 33.3993 15.4388 30.4856 9.69335L25.8071 14.9464Z" fill="white"/>
<path d="M26.8331 4.89169C25.5609 3.78363 24.3297 3.04493 23.3448 2.55246C21.7443 4.35818 20.1848 6.12286 18.5843 7.92858C19.5282 8.25689 21.0056 8.91351 22.483 10.2678C23.8373 11.499 24.617 12.7712 25.0274 13.633C26.6279 11.9094 28.2284 10.1857 29.7879 8.42104C29.2544 7.51819 28.3105 6.1639 26.8331 4.89169Z" fill="#B60214"/>
</svg>
