<svg width="16" height="16" viewBox="0 0 16 16" fill="none" xmlns="http://www.w3.org/2000/svg">
<rect width="16" height="16" fill="#111111"/>
<path d="M11.0046 7.36302C11.1955 8.27952 10.9664 9.28511 10.2918 10.0361C9.1716 11.2963 7.23678 11.3981 5.9766 10.278C4.71642 9.15782 4.61459 7.223 5.73475 5.96282C6.42212 5.18635 7.41499 4.8554 8.36967 4.96996L9.82078 3.34064C7.93688 2.60235 5.70929 3.07332 4.27091 4.66446C2.43792 6.71384 2.6034 9.88338 4.66551 11.7291C6.71489 13.5621 9.88443 13.3966 11.7301 11.3345C13.1431 9.75609 13.3595 7.51577 12.4557 5.7337L11.0046 7.36302Z" fill="white"/>
<path d="M11.3227 4.24436C10.9281 3.90067 10.5462 3.67155 10.2407 3.5188C9.7443 4.07888 9.26059 4.62623 8.76416 5.18631C9.05693 5.28814 9.51518 5.49181 9.97342 5.91187C10.3935 6.29374 10.6353 6.68834 10.7626 6.95565C11.2591 6.42103 11.7555 5.88641 12.2392 5.33906C12.0737 5.05902 11.781 4.63896 11.3227 4.24436Z" fill="#B60214"/>
</svg>
