<svg width="90" height="90" viewBox="0 0 90 90" fill="none" xmlns="http://www.w3.org/2000/svg">
<path fill-rule="evenodd" clip-rule="evenodd" d="M44.5321 0.573248C20.2484 0.573248 0.564756 20.465 0.564756 45C0.564756 69.535 20.2484 89.4268 44.5321 89.4268C66.3502 89.4268 84.4555 73.3689 87.9066 52.3135L86.7688 50.7975L88.6028 49.3792L90 51.2408L88.4598 52.4319C84.9538 73.7492 66.6205 90 44.5321 90C19.9389 90 0 69.854 0 45C0 20.146 19.9389 0 44.5321 0C64.1773 0 80.8517 12.8545 86.7669 30.6948L88.4737 31.6233L87.3846 33.686L85.3524 32.5805L86.2393 30.9008C80.4065 13.2763 63.9376 0.573248 44.5321 0.573248Z" fill="#BA0315"/>
<path fill-rule="evenodd" clip-rule="evenodd" d="M44.4824 12.2389C26.6092 12.2389 12.1223 26.9077 12.1223 45C12.1223 63.0922 26.6092 77.761 44.4824 77.761C60.4234 77.761 73.6713 66.0919 76.3488 50.7329L75.2209 49.2274L77.0482 47.8116L78.4403 49.6699L76.8971 50.8656C74.1594 66.4788 60.6877 78.3333 44.4824 78.3333C26.3008 78.3333 11.5596 63.4107 11.5596 45C11.5596 26.5893 26.3008 11.6666 44.4824 11.6666C58.8789 11.6666 71.1175 21.0224 75.59 34.0572L77.3002 34.9894L76.2151 37.0484L74.1904 35.9449L75.0694 34.2769C70.6827 21.45 58.6452 12.2389 44.4824 12.2389Z" fill="#BA0315"/>
<path fill-rule="evenodd" clip-rule="evenodd" d="M44.4269 23.0699C32.5159 23.0699 22.8622 32.703 22.8622 44.5833C22.8622 56.4637 32.5159 66.0968 44.4269 66.0968C54.8975 66.0968 63.6241 58.6524 65.5813 48.7817L64.4529 47.2974L66.2995 45.8874L67.7064 47.7381L66.1291 48.9424C64.1004 59.0519 55.1544 66.6667 44.4269 66.6667C32.2042 66.6667 22.2936 56.7808 22.2936 44.5833C22.2936 32.3858 32.2042 22.5 44.4269 22.5C53.9352 22.5 62.0434 28.4821 65.1765 36.8806L66.9246 37.8195L65.8279 39.8702L63.7818 38.7711L64.6612 37.1267C61.6217 28.9208 53.7094 23.0699 44.4269 23.0699Z" fill="#BA0315"/>
<path fill-rule="evenodd" clip-rule="evenodd" d="M44.3797 33.8959C38.4236 33.8959 33.5952 38.6808 33.5952 44.5834C33.5952 50.4859 38.4236 55.2709 44.3797 55.2709C49.4002 55.2709 53.6197 51.871 54.8213 47.268L53.7247 45.8434L55.5671 44.4506L56.9725 46.2765L55.3447 47.5071C54.0458 52.3028 49.629 55.8334 44.3797 55.8334C38.1101 55.8334 33.0276 50.7966 33.0276 44.5834C33.0276 38.3702 38.1101 33.3334 44.3797 33.3334C48.9988 33.3334 52.973 36.0671 54.7458 39.9906L56.5497 40.9516L55.4525 42.9743L53.4115 41.887L54.2674 40.3092C52.6033 36.5339 48.8021 33.8959 44.3797 33.8959Z" fill="#BA0315"/>
</svg>
