<svg width="76" height="90" viewBox="0 0 76 90" fill="none" xmlns="http://www.w3.org/2000/svg">
<path d="M75.6808 76.0439L75.5008 74.5274C73.9541 70.7047 58.5855 61.3769 39.3625 52.76L39.248 52.7126L39.3052 52.602L66.1798 0.284336L66.2862 0.331723C66.8918 0.600262 66.9409 0.734536 66.9409 0.80562L75.7545 74.5432C75.8773 74.8592 75.91 75.1356 75.8445 75.3805L75.6808 76.0439ZM39.5753 52.602C58.1845 60.9504 72.7593 69.7016 75.4271 73.9272L66.6954 0.83722C66.6545 0.797729 66.5153 0.710846 66.2862 0.600271L39.5753 52.602Z" fill="#BA0315"/>
<path d="M71.1554 70.1281L66.6217 0.726633L66.8591 0.710845L71.4009 70.1123L71.1554 70.1281Z" fill="#BA0315"/>
<path d="M58.1273 61.9614L66.4171 0.576577L66.6545 0.608165L58.3728 61.993L58.1273 61.9614Z" fill="#BA0315"/>
<path d="M0.122722 41.821L0.188204 41.5367C0.270039 41.2128 0.49919 40.9601 0.867447 40.7784C1.0884 40.6758 1.36664 40.5968 1.6858 40.5415L65.4924 0.181667V0.173761L65.5579 0.142173C65.6561 0.0947839 65.9016 0.16586 66.278 0.331722L66.3926 0.379122L66.3353 0.489696L39.4607 52.8074L39.3543 52.76C22.0299 44.9961 6.46494 40.0676 1.78399 40.7705L0.122722 41.821ZM1.01474 40.9838C1.00656 40.9917 0.990211 40.9917 0.982028 40.9996C0.851092 41.0628 0.744695 41.1259 0.66286 41.2049L1.01474 40.9838ZM65.6643 0.363322L2.22588 40.4862C7.49605 40.1308 22.3409 44.8855 39.3543 52.4994L66.0652 0.49759C65.8607 0.41071 65.7215 0.37122 65.6643 0.363322Z" fill="#BA0315"/>
<path d="M65.8474 0.233135L20.1082 44.8423L20.2827 45.0089L66.0219 0.399796L65.8474 0.233135Z" fill="#BA0315"/>
<path d="M65.6436 0.167336L6.08252 40.8305L6.22429 41.024L65.7853 0.360771L65.6436 0.167336Z" fill="#BA0315"/>
<path d="M75.6153 74.9934C75.1898 71.4471 59.2648 61.685 39.3543 52.76C20.3359 44.2378 3.78077 39.2225 0.818348 41.0785L0.687385 40.8811L65.5497 0.15007C65.5824 0.126376 65.6888 0.0789806 66.2862 0.331723C66.9163 0.616058 66.9327 0.742438 66.9327 0.781929L75.8527 74.9697L75.6153 74.9934ZM36.04 51.0461C37.1694 51.5358 38.3069 52.0333 39.4607 52.5546C57.939 60.8319 73.0049 69.8833 75.5008 74.0614L66.6954 0.845116C66.6463 0.805625 66.4744 0.687151 66.1798 0.56078C65.8934 0.442307 65.7133 0.387023 65.6561 0.379125L1.6367 40.581C6.03123 39.8465 19.894 44.0562 36.04 51.0461Z" fill="#BA0315"/>
<path d="M75.6808 76.0439L75.5008 74.5274C73.9541 70.7047 58.5855 61.3769 39.3625 52.76L39.248 52.7126L39.3052 52.602L66.1798 0.284336L66.2862 0.331723C66.8918 0.600262 66.9409 0.734536 66.9409 0.80562L75.7545 74.5432C75.8773 74.8592 75.91 75.1356 75.8445 75.3805L75.6808 76.0439ZM39.5753 52.602C58.1845 60.9504 72.7593 69.7016 75.4271 73.9272L66.6954 0.83722C66.6545 0.797729 66.5153 0.710846 66.2862 0.600271L39.5753 52.602Z" fill="#BA0315"/>
<path d="M75.6808 76.0439L66.6954 0.781926L66.9327 0.781929L75.8527 74.9697C75.8691 75.1119 75.8609 75.2541 75.8363 75.3805L75.6808 76.0439Z" fill="#BA0315"/>
<path d="M0.122722 41.821L0.188204 41.5367C0.270039 41.2128 0.49919 40.9601 0.867447 40.7784C1.0884 40.6758 1.36664 40.5968 1.6858 40.5415L65.4924 0.181667V0.173761L65.5579 0.142173C65.6561 0.0947839 65.9016 0.16586 66.278 0.331722L66.3926 0.379122L66.3353 0.489696L39.4607 52.8074L39.3543 52.76C22.0299 44.9961 6.46494 40.0676 1.78399 40.7705L0.122722 41.821ZM1.01474 40.9838C1.00656 40.9917 0.990211 40.9917 0.982028 40.9996C0.851092 41.0628 0.744695 41.1259 0.66286 41.2049L1.01474 40.9838ZM65.6643 0.363322L2.22588 40.4862C7.49605 40.1308 22.3409 44.8855 39.3543 52.4994L66.0652 0.49759C65.8607 0.41071 65.7215 0.37122 65.6643 0.363322Z" fill="#BA0315"/>
<path d="M36.6784 64.4177L36.5638 64.3704C15.3686 54.8767 -0.605594 44.846 0.188204 41.5367L0.196414 41.4893L0.237321 41.4656L65.7952 0L65.7379 0.236948C65.7952 0.284338 65.9671 0.394917 66.2371 0.51339L66.3435 0.560778L36.6784 64.4177ZM0.417384 41.6393C-0.18001 44.8302 15.966 54.8767 36.5556 64.1097L66.0243 0.687152C65.787 0.576577 65.6561 0.489695 65.5743 0.42651L0.417384 41.6393Z" fill="#BA0315"/>
<path d="M4.82822 46.8916L4.67274 46.71L65.607 0.252748L65.7543 0.442309L4.82822 46.8916Z" fill="#BA0315"/>
<path d="M65.8287 0.432935L17.6997 54.8861L17.8865 55.0398L66.0155 0.586707L65.8287 0.432935Z" fill="#BA0315"/>
<path d="M40.0909 65.9184C38.9288 65.4129 37.7586 64.8995 36.572 64.3704L36.4656 64.323L66.1389 0.473897L66.2534 0.521284C66.4826 0.616063 66.6463 0.671351 66.7281 0.695046L66.8672 0.11848L75.8527 75.3883C75.7709 75.7122 75.5417 75.9649 75.1735 76.1466C71.8919 77.6788 57.4317 73.4217 40.0909 65.9184ZM36.7766 64.2045C55.2549 72.466 71.6873 77.5051 75.0507 75.9254C75.3535 75.7833 75.5335 75.5937 75.599 75.3489L66.7117 0.924088C66.6053 0.908292 66.4498 0.860913 66.2534 0.774032L36.7766 64.2045Z" fill="#BA0315"/>
<path d="M66.3902 0.766163L55.7309 72.0168L55.9739 72.0506L66.6331 0.800021L66.3902 0.766163Z" fill="#BA0315"/>
<path d="M66.8547 0.796915L66.6094 0.806488L69.7585 75.9767L70.0038 75.9671L66.8547 0.796915Z" fill="#BA0315"/>
<path d="M40.0909 65.9184C38.9288 65.4129 37.7586 64.8995 36.572 64.3704C15.3768 54.8767 -0.597384 44.846 0.196414 41.5367C0.261882 41.2681 0.425539 41.047 0.695594 40.8811L65.5579 0.150068L65.6234 0.244854L65.7298 0.284336C65.7379 0.244845 65.7297 0.213255 65.7216 0.213255C65.7461 0.244848 65.9262 0.371223 66.2453 0.51339C66.4745 0.608169 66.6381 0.663457 66.7199 0.687152L66.8591 0.110574L75.8445 75.3805C75.7627 75.7043 75.5335 75.957 75.1653 76.1387C71.8919 77.6788 57.4317 73.4217 40.0909 65.9184ZM65.5743 0.418604L0.818348 41.0785C0.605578 41.2128 0.474626 41.3866 0.425526 41.5919C-0.335538 44.7433 15.9251 54.8609 36.6702 64.1571C55.1894 72.4581 71.6791 77.513 75.0507 75.9254C75.3535 75.7833 75.5335 75.5937 75.599 75.3489L66.7036 0.924088C66.5727 0.908292 66.3844 0.837208 66.1389 0.726633C65.828 0.592364 65.6643 0.489688 65.5743 0.418604Z" fill="#BA0315"/>
<path d="M22.881 89.8184L22.7746 89.771C22.7501 89.7552 22.6764 89.7315 22.6519 89.6683L1.2357 43.835C0.417353 42.8872 0.0490849 42.1132 0.188204 41.5367L0.270056 41.197L1.4812 43.7955C5.40108 48.2027 19.493 56.4564 36.662 64.1492L36.7766 64.2045L36.7193 64.3151L22.881 89.8184ZM1.77579 44.4195L22.8155 89.4392L36.4492 64.323C19.7303 56.8197 6.26852 48.9925 1.77579 44.4195ZM0.450069 42.1448C0.507353 42.3818 0.638299 42.6424 0.818335 42.9346L0.450069 42.1448Z" fill="#BA0315"/>
<path d="M22.6683 89.6841L4.64002 46.8442L4.86099 46.7574L22.8892 89.5972L22.6683 89.6841Z" fill="#BA0315"/>
<path d="M17.9108 54.9016L17.6677 54.9344L22.6894 89.6423L22.9325 89.6095L17.9108 54.9016Z" fill="#BA0315"/>
<path d="M22.791 89.7789C22.7828 89.7789 22.7828 89.771 22.7746 89.771L22.6601 89.7157L22.7174 89.6051L36.5638 64.1018L36.6702 64.1492C52.0306 71.0443 66.0161 75.6885 72.252 76.1703L75.8854 75.183L75.8363 75.3726C75.7545 75.6964 75.5253 75.9491 75.1571 76.1308C74.5597 76.4151 73.5777 76.502 72.2683 76.4072L22.9301 89.7868C22.8892 89.8105 22.8483 89.8026 22.791 89.7789ZM36.6702 64.4177L23.0447 89.5182L71.5973 76.3519C65.0587 75.649 51.7114 71.1549 36.6702 64.4177ZM75.5171 75.5305L72.9967 76.2098C73.8969 76.2255 74.5843 76.1387 75.0425 75.9254C75.2717 75.8228 75.4271 75.6885 75.5171 75.5305Z" fill="#BA0315"/>
<path d="M22.9137 89.7789L22.7992 89.5735L55.7786 71.8973L55.9014 72.1027L22.9137 89.7789Z" fill="#BA0315"/>
<path d="M69.8116 75.9065L22.8054 89.5665L22.8761 89.7934L69.8824 76.1333L69.8116 75.9065Z" fill="#BA0315"/>
<path d="M22.791 89.7789C22.7828 89.7789 22.7746 89.771 22.7746 89.771C22.7092 89.7473 22.6764 89.7157 22.6601 89.6762L0.368267 42.5871C0.368267 42.5871 0.368267 42.5871 0.368267 42.5792L0.589187 42.4844C2.47139 46.4651 17.9873 55.7771 36.6702 64.1571C54.502 72.1501 70.4679 77.1497 74.6497 76.0676L74.7152 76.2966H74.707L22.9137 89.8026C22.8892 89.8026 22.8564 89.8105 22.791 89.7789ZM22.8647 89.5577L22.881 89.5656L73.2013 76.4467C67.4319 76.423 52.7344 71.6288 36.5638 64.3704C19.5258 56.7328 5.10647 48.2975 1.20295 43.8034L22.8647 89.5577Z" fill="#BA0315"/>
<path d="M22.7174 89.8499L22.7419 89.7394L22.6928 89.7157L22.7174 89.5972L39.3462 52.4915L39.4607 52.5388C60.6559 62.0404 76.6301 72.0632 75.8363 75.3726L75.8199 75.4436L75.7545 75.4594L22.7174 89.8499ZM39.4689 52.8153L23.0119 89.5261L75.6072 75.262C76.131 72.0474 60.0176 62.0325 39.4689 52.8153Z" fill="#BA0315"/>
<path d="M22.9219 89.7868L22.8319 89.5656L71.229 70.0097L71.319 70.2308L22.9219 89.7868Z" fill="#BA0315"/>
<path d="M22.9301 89.7552L22.7828 89.5735L58.1763 61.8903L58.3236 62.072L22.9301 89.7552Z" fill="#BA0315"/>
<path d="M22.8074 90L22.6601 89.6841L0.180013 41.5761L0.188204 41.5367C0.270039 41.2128 0.49919 40.9601 0.867447 40.7784C4.35361 39.1356 20.5732 44.0878 39.4525 52.5467L39.5589 52.5941L39.5098 52.6968L22.881 89.8025L22.8483 89.7868L22.8074 90ZM0.433699 41.5524L22.7992 89.4155L39.248 52.7126C38.1432 52.2229 37.0466 51.7332 35.9582 51.2672C18.8547 43.8666 4.13266 39.5068 0.973836 40.9917C0.687415 41.1338 0.50735 41.3155 0.433699 41.5524Z" fill="#BA0315"/>
<path d="M22.6846 89.6446L20.0659 44.9329L20.3114 44.9171L22.9219 89.6367L22.6846 89.6446Z" fill="#BA0315"/>
<path d="M22.6683 89.6683L6.04761 40.9838L6.27672 40.9048L22.8974 89.5972L22.6683 89.6683Z" fill="#BA0315"/>
<path d="M22.881 89.8184L22.7746 89.771C22.7501 89.7552 22.6764 89.7315 22.6519 89.6683L1.2357 43.835C0.417353 42.8872 0.0490849 42.1132 0.188204 41.5367L0.270056 41.197L1.4812 43.7955C5.40108 48.2027 19.493 56.4564 36.662 64.1492L36.7766 64.2045L36.7193 64.3151L22.881 89.8184ZM1.77579 44.4195L22.8155 89.4392L36.4492 64.323C19.7303 56.8197 6.26852 48.9925 1.77579 44.4195ZM0.450069 42.1448C0.507353 42.3818 0.638299 42.6424 0.818335 42.9346L0.450069 42.1448Z" fill="#BA0315"/>
<path d="M22.7174 89.8499L22.7419 89.7473L22.6519 89.7078V89.6604L0.368267 42.5871C0.180047 42.1922 0.122736 41.8368 0.188204 41.5367C0.270039 41.2128 0.49919 40.9601 0.867447 40.7784C4.35361 39.1356 20.5732 44.0878 39.4525 52.5467C60.6478 62.0483 76.6219 72.0711 75.8281 75.3804L75.8118 75.4515L75.7463 75.4673L22.971 89.7788L23.012 89.8657L22.8729 89.8025L22.7174 89.8499ZM22.881 89.5419C22.8892 89.5419 22.8974 89.5498 22.9056 89.5577L75.6154 75.2619C76.1309 72.0395 59.9604 61.993 39.3625 52.76C20.8515 44.4511 4.35363 39.4041 0.982035 40.9917C0.671062 41.1338 0.490982 41.3313 0.425514 41.584C0.368229 41.8289 0.417334 42.129 0.589187 42.4844L22.8647 89.534C22.8647 89.5419 22.8728 89.5419 22.881 89.5419Z" fill="#BA0315"/>
<path d="M22.791 89.7789C22.7828 89.7789 22.7828 89.771 22.7746 89.771L22.6601 89.7157L22.7174 89.6051L36.5638 64.1018L36.6702 64.1492C52.0306 71.0443 66.0161 75.6885 72.252 76.1703L75.8854 75.183L75.8363 75.3726C75.7545 75.6964 75.5253 75.9491 75.1571 76.1308C74.5597 76.4151 73.5777 76.502 72.2683 76.4072L22.9301 89.7868C22.8892 89.8105 22.8483 89.8026 22.791 89.7789ZM36.6702 64.4177L23.0447 89.5182L71.5973 76.3519C65.0587 75.649 51.7114 71.1549 36.6702 64.4177ZM75.5171 75.5305L72.9967 76.2098C73.8969 76.2255 74.5843 76.1387 75.0425 75.9254C75.2717 75.8228 75.4271 75.6885 75.5171 75.5305Z" fill="#BA0315"/>
<path d="M22.9137 89.8026L22.8728 89.6841L22.7746 89.6367L22.7992 89.5893L22.8565 89.5735L75.8936 75.1909L75.8445 75.3805C75.7381 75.8149 75.3617 76.1229 74.7234 76.2887L22.9137 89.8026ZM75.5171 75.5305L46.0321 83.5235L74.6497 76.0597C75.0834 75.957 75.378 75.7754 75.5171 75.5305Z" fill="#BA0315"/>
<path d="M22.881 89.8184L22.7746 89.771C22.7501 89.7552 22.6764 89.7315 22.6519 89.6683L1.12113 43.8113C0.294599 42.8636 -0.0818309 42.0737 0.0572883 41.4971L0.139103 41.1575L1.36663 43.7718C5.31106 48.1948 19.4439 56.4721 36.6456 64.1808L36.7602 64.2361L36.7029 64.3467L22.881 89.8184ZM1.66122 44.3958L22.8074 89.4392L36.4328 64.3545C19.6812 56.8355 6.18669 48.9925 1.66122 44.3958ZM0.319166 42.0974C0.384634 42.3423 0.507362 42.6187 0.703765 42.9188L0.319166 42.0974Z" fill="#BA0315"/>
<path d="M22.6683 89.6841L4.52544 46.8284L4.7546 46.7337L22.8892 89.5972L22.6683 89.6841Z" fill="#BA0315"/>
<path d="M22.6764 89.6683L17.5863 54.9636L17.8236 54.932L22.9219 89.6367L22.6764 89.6683Z" fill="#BA0315"/>
<path d="M22.791 89.7789C22.7828 89.7789 22.7828 89.771 22.7746 89.771L22.6601 89.7157L22.7174 89.6051L36.5474 64.1334L36.6538 64.1808C52.0551 71.0838 66.0653 75.7517 72.3256 76.2335L75.9918 75.2462L75.9427 75.4357C75.8609 75.7596 75.6317 76.0123 75.2553 76.194C74.6497 76.4783 73.6595 76.5652 72.3419 76.4704L22.9219 89.7789C22.8892 89.8105 22.8483 89.8026 22.791 89.7789ZM36.662 64.4493L23.0447 89.5182L71.6791 76.423C65.1159 75.7122 51.736 71.1944 36.662 64.4493ZM75.6317 75.6016L73.0867 76.2887C74.0032 76.3124 74.6988 76.2176 75.1571 76.0044C75.378 75.8938 75.5417 75.7596 75.6317 75.6016Z" fill="#BA0315"/>
<path d="M55.8486 71.9824L22.8203 89.6129L22.9392 89.8202L55.9674 72.1898L55.8486 71.9824Z" fill="#BA0315"/>
<path d="M22.9056 89.7947L22.8401 89.5735L69.9279 75.9412L69.9933 76.1624L22.9056 89.7947Z" fill="#BA0315"/>
<path d="M22.791 89.7789C22.7828 89.7789 22.7746 89.771 22.7746 89.771C22.7173 89.7473 22.6764 89.7157 22.6601 89.6841L0.245494 42.5555L0.466464 42.4607C2.37322 46.4572 17.93 55.8008 36.662 64.1887C54.5265 72.1975 70.558 77.2207 74.7561 76.1387L74.8216 76.3677L22.9219 89.8026C22.8892 89.8026 22.8564 89.8105 22.791 89.7789ZM22.8647 89.5577L22.881 89.5656L73.2995 76.5178C67.5056 76.4862 52.7753 71.6841 36.5556 64.4019C19.4685 56.7486 5.00831 48.2817 1.08842 43.7718L22.8647 89.5577Z" fill="#BA0315"/>
<path d="M22.7174 89.8499L22.7419 89.7394L22.6928 89.7157L22.7174 89.5972L39.3462 52.4915L39.4607 52.5388C60.7214 62.0641 76.7529 72.1264 75.9509 75.4436L75.9345 75.5147L75.869 75.5305L22.7174 89.8499ZM39.4689 52.8153L23.0201 89.534L75.7299 75.341C76.2455 72.1027 60.0749 62.0562 39.4689 52.8153Z" fill="#BA0315"/>
<path d="M71.3294 70.0595L22.8263 89.546L22.9207 89.7647L71.4237 70.2782L71.3294 70.0595Z" fill="#BA0315"/>
<path d="M22.9301 89.7552L22.7828 89.5735L58.2336 61.914L58.3809 62.0957L22.9301 89.7552Z" fill="#BA0315"/>
<path d="M22.8074 90L0.0490989 41.5367L0.0572883 41.4971C0.139123 41.1733 0.368235 40.9206 0.744675 40.7389C4.23902 39.0961 20.516 44.072 39.4525 52.5467L39.5589 52.5941L39.5098 52.6968L22.881 89.8025L22.8483 89.7868L22.8074 90ZM0.310976 41.513L22.7992 89.4155L39.248 52.7126C20.7205 44.4195 4.22266 39.3646 0.851064 40.9522C0.556459 41.0943 0.384628 41.276 0.310976 41.513Z" fill="#BA0315"/>
<path d="M20.2164 44.9084L19.9714 44.9221L22.6464 89.6682L22.8915 89.6545L20.2164 44.9084Z" fill="#BA0315"/>
<path d="M22.6683 89.6683L5.94122 40.9443L6.17033 40.8653L22.8974 89.5972L22.6683 89.6683Z" fill="#BA0315"/>
<path d="M22.881 89.8184L22.7746 89.771C22.7501 89.7552 22.6764 89.7315 22.6519 89.6683L1.12113 43.8113C0.294599 42.8636 -0.0818309 42.0737 0.0572883 41.4971L0.139103 41.1575L1.36663 43.7718C5.31106 48.1948 19.4439 56.4721 36.6456 64.1808L36.7602 64.2361L36.7029 64.3467L22.881 89.8184ZM1.66122 44.3958L22.8074 89.4392L36.4328 64.3545C19.6812 56.8355 6.18669 48.9925 1.66122 44.3958ZM0.319166 42.0974C0.384634 42.3423 0.507362 42.6187 0.703765 42.9188L0.319166 42.0974Z" fill="#BA0315"/>
<path d="M22.7174 89.8499L22.7419 89.7473L22.6519 89.7078V89.6604L0.245494 42.5555C0.0572744 42.1527 -0.00817964 41.7973 0.0654717 41.4971C0.147307 41.1733 0.376416 40.9206 0.752856 40.7389C4.2472 39.0961 20.5241 44.072 39.4607 52.5467C60.7214 62.072 76.7529 72.1343 75.9509 75.4515L75.9345 75.5226L75.869 75.5384L22.9792 89.7789L23.0201 89.8658L22.881 89.8025L22.7174 89.8499ZM22.881 89.5419C22.8892 89.5419 22.8974 89.5498 22.9056 89.5577L75.7217 75.3331C76.2455 72.1027 60.0176 62.0246 39.3543 52.76C20.7942 44.4274 4.23084 39.3646 0.851064 40.9522C0.540092 41.0943 0.360051 41.2918 0.294583 41.5524C0.237299 41.7973 0.28641 42.1053 0.458263 42.4607L22.8564 89.534C22.8646 89.5419 22.8728 89.5419 22.881 89.5419Z" fill="#BA0315"/>
<path d="M22.791 89.7789C22.7828 89.7789 22.7828 89.771 22.7746 89.771L22.6601 89.7157L22.7174 89.6051L36.5474 64.1334L36.6538 64.1808C52.0551 71.0838 66.0653 75.7517 72.3256 76.2335L75.9918 75.2462L75.9427 75.4357C75.8609 75.7596 75.6317 76.0123 75.2553 76.194C74.6497 76.4783 73.6595 76.5652 72.3419 76.4704L22.9219 89.7789C22.8892 89.8105 22.8483 89.8026 22.791 89.7789ZM36.662 64.4493L23.0447 89.5182L71.6791 76.423C65.1159 75.7122 51.736 71.1944 36.662 64.4493ZM75.6317 75.6016L73.0867 76.2887C74.0032 76.3124 74.6988 76.2176 75.1571 76.0044C75.378 75.8938 75.5417 75.7596 75.6317 75.6016Z" fill="#BA0315"/>
<path d="M22.9137 89.8026L22.8728 89.6841L22.7746 89.6367L22.7992 89.5893L22.8565 89.5735L76 75.262L75.9509 75.4515C75.8445 75.8938 75.4681 76.2019 74.8216 76.3677L22.9137 89.8026ZM75.6317 75.6016L45.9011 83.6104L74.7561 76.1387C75.1898 76.0281 75.4844 75.8464 75.6317 75.6016Z" fill="#BA0315"/>
<path d="M75.7872 76.1071L75.6072 74.5906C74.0442 70.7521 58.6264 61.4006 39.3543 52.76L39.2398 52.7126L39.2971 52.602L66.1716 0.284336L66.278 0.331722C66.8836 0.600261 66.9327 0.734536 66.9327 0.80562L75.8527 74.6064C75.9754 74.9223 76.0082 75.2067 75.9509 75.4515L75.7872 76.1071ZM39.5671 52.602C58.2336 60.9741 72.8493 69.749 75.5335 73.9904L66.6954 0.83722C66.6545 0.797729 66.5153 0.710846 66.2862 0.600271L39.5671 52.602Z" fill="#BA0315"/>
<path d="M71.2536 70.1834L66.6217 0.726633L66.8591 0.710845L71.4909 70.1676L71.2536 70.1834Z" fill="#BA0315"/>
<path d="M66.3882 0.59856L58.1621 62.0143L58.4055 62.0447L66.6317 0.628939L66.3882 0.59856Z" fill="#BA0315"/>
<path d="M0 41.7815L0.0654717 41.4971C0.147307 41.1733 0.376416 40.9206 0.752856 40.7389C0.97381 40.6362 1.25207 40.5573 1.57941 40.502L65.5088 0.181667V0.173761L65.5742 0.142173C65.6724 0.0947839 65.918 0.16586 66.2944 0.331722L66.4089 0.379122L66.3517 0.489696L39.4771 52.8074L39.3707 52.76C21.9972 44.9645 6.3913 40.0281 1.6858 40.731L0 41.7815ZM0.900163 40.9364C0.883796 40.9443 0.867431 40.9522 0.851064 40.9601C0.720128 41.0233 0.60559 41.0944 0.523755 41.1733L0.900163 40.9364ZM65.6643 0.363322L2.11135 40.4467C7.40607 40.0913 22.2918 44.8697 39.3462 52.4994L66.0652 0.49759C65.8607 0.41071 65.7215 0.37122 65.6643 0.363322Z" fill="#BA0315"/>
<path d="M20.2132 44.9803L20.0413 44.8144L65.8361 0.236948L66.0161 0.402816L20.2132 44.9803Z" fill="#BA0315"/>
<path d="M65.6228 0.129923L6.00825 40.8296L6.15002 41.023L65.7645 0.323358L65.6228 0.129923Z" fill="#BA0315"/>
<path d="M75.7299 75.0645C75.2962 71.5024 59.322 61.7087 39.3625 52.7679C20.295 44.222 3.67437 39.183 0.703767 41.047L0.572854 40.8495L59.0602 4.23344C59.6903 3.83853 60.4268 3.45942 61.2042 3.05661C62.8328 2.20361 64.5268 1.3269 65.5333 0.189564L65.5579 0.16587C65.5906 0.142176 65.697 0.0947829 66.2944 0.347525C66.7118 0.537082 66.9327 0.687154 66.9409 0.797729L75.9754 75.0487L75.7299 75.0645ZM36.0155 51.0303C37.153 51.52 38.2987 52.0255 39.4607 52.5467C57.9963 60.8478 73.1112 69.9228 75.6153 74.1167L66.6954 0.829316C66.6463 0.789825 66.4744 0.671352 66.1798 0.54498C65.9098 0.426507 65.7379 0.379122 65.6724 0.363325C64.6331 1.51646 62.9391 2.39316 61.3024 3.24616C60.5332 3.64897 59.8049 4.02809 59.1748 4.41511L1.51392 40.5178C5.92482 39.799 19.8204 44.0246 36.0155 51.0303Z" fill="#BA0315"/>
<path d="M75.7872 76.1071L75.6072 74.5906C74.0442 70.7521 58.6264 61.4006 39.3543 52.76L39.2398 52.7126L39.2971 52.602L66.1716 0.284336L66.278 0.331722C66.8836 0.600261 66.9327 0.734536 66.9327 0.80562L75.8527 74.6064C75.9754 74.9223 76.0082 75.2067 75.9509 75.4515L75.7872 76.1071ZM39.5671 52.602C58.2336 60.9741 72.8493 69.749 75.5335 73.9904L66.6954 0.83722C66.6545 0.797729 66.5153 0.710846 66.2862 0.600271L39.5671 52.602Z" fill="#BA0315"/>
<path d="M75.7872 76.1071L75.7054 75.4357L66.6872 0.781926H66.9245L75.9591 75.0329C75.9755 75.183 75.9673 75.3252 75.9427 75.4515L75.7872 76.1071Z" fill="#BA0315"/>
<path d="M0 41.7815L0.0654717 41.4971C0.147307 41.1733 0.376416 40.9206 0.752856 40.7389C0.97381 40.6362 1.25207 40.5573 1.57941 40.502L65.5088 0.181667V0.173761L65.5742 0.142173C65.6724 0.0947839 65.918 0.16586 66.2944 0.331722L66.4089 0.379122L66.3517 0.489696L39.4771 52.8074L39.3707 52.76C21.9972 44.9645 6.3913 40.0281 1.6858 40.731L0 41.7815ZM0.900163 40.9364C0.883796 40.9443 0.867431 40.9522 0.851064 40.9601C0.720128 41.0233 0.60559 41.0944 0.523755 41.1733L0.900163 40.9364ZM65.6643 0.363322L2.11135 40.4467C7.40607 40.0913 22.2918 44.8697 39.3462 52.4994L66.0652 0.49759C65.8607 0.41071 65.7215 0.37122 65.6643 0.363322Z" fill="#BA0315"/>
<path d="M36.6702 64.4572L36.5556 64.4098C15.2949 54.8846 -0.736504 44.8223 0.0654768 41.5051L0.0736183 41.4577L0.114576 41.434L65.7952 0.00790592L65.7379 0.244854C65.7952 0.292244 65.967 0.402811 66.2371 0.521284L66.3435 0.568672L36.6702 64.4572ZM0.294588 41.5998C-0.302806 44.8065 15.8923 54.8767 36.5474 64.1413L66.0325 0.679246C65.7952 0.568671 65.6643 0.481789 65.5824 0.418604L0.294588 41.5998Z" fill="#BA0315"/>
<path d="M4.71369 46.8758L4.5664 46.6863L65.607 0.252748L65.7543 0.442309L4.71369 46.8758Z" fill="#BA0315"/>
<path d="M65.7968 0.392351L17.6359 54.8815L17.8227 55.0353L65.9835 0.546123L65.7968 0.392351Z" fill="#BA0315"/>
<path d="M40.0991 65.9658C38.9288 65.4603 37.7504 64.939 36.5556 64.4098L36.4492 64.3624L66.1307 0.473897L66.2453 0.521284C66.4744 0.616063 66.6381 0.671351 66.7199 0.695046L66.8591 0.11848L66.9409 0.78982L75.9591 75.4515C75.8773 75.7754 75.6481 76.0281 75.2717 76.2098C71.9901 77.7499 57.489 73.4849 40.0991 65.9658ZM36.7684 64.244C55.304 72.5292 71.7855 77.5919 75.1571 76.0044C75.4599 75.8622 75.6399 75.6727 75.7054 75.4278L66.7036 0.939888C66.5972 0.924092 66.4417 0.8767 66.2453 0.78982L36.7684 64.244Z" fill="#BA0315"/>
<path d="M55.7704 72.0395L66.3762 0.734539L66.6135 0.766127L56.0078 72.0711L55.7704 72.0395Z" fill="#BA0315"/>
<path d="M69.8378 76.0518L66.5972 0.82142L66.8427 0.80562L70.0834 76.0439L69.8378 76.0518Z" fill="#BA0315"/>
<path d="M40.0991 65.9658C38.9288 65.4603 37.7504 64.939 36.5556 64.4098C15.2949 54.8846 -0.736504 44.8223 0.0654768 41.5051C0.130945 41.2365 0.294602 41.0154 0.564657 40.8495L65.5497 0.157974L65.6152 0.252748L65.7215 0.292242C65.7297 0.252751 65.7215 0.221149 65.7133 0.221149C65.7379 0.252741 65.9179 0.379117 66.2371 0.521284C66.4662 0.616063 66.6299 0.671351 66.7117 0.695046L66.8509 0.11848L66.9327 0.78982L75.9509 75.4515C75.869 75.7754 75.6399 76.0281 75.2635 76.2098C71.9901 77.7499 57.489 73.4849 40.0991 65.9658ZM0.695571 41.0391C0.474617 41.1733 0.351868 41.3471 0.294583 41.5524C-0.466481 44.7117 15.8432 54.8688 36.6538 64.1887C55.2303 72.5292 71.7773 77.5841 75.1571 75.9965C75.4599 75.8543 75.6399 75.6648 75.7054 75.4199L66.7036 0.931994C66.5726 0.916198 66.3844 0.845114 66.1389 0.734539C65.8279 0.60027 65.6643 0.497586 65.5824 0.418604L0.695571 41.0391Z" fill="#BA0315"/>
</svg>
