<svg width="90" height="90" viewBox="0 0 90 90" fill="none" xmlns="http://www.w3.org/2000/svg">
<path d="M74.4039 81.1503C74.3697 81.1503 74.3355 81.1373 74.3127 81.0984L62.5565 62.4906C62.5223 62.4387 62.5337 62.3478 62.5793 62.3089C62.6249 62.27 62.7047 62.283 62.739 62.3349L74.5065 80.9427C74.5407 80.9946 74.5294 81.0854 74.4837 81.1243C74.4495 81.1373 74.4267 81.1503 74.4039 81.1503Z" fill="#BA0315"/>
<path d="M54.7571 50.0854C54.7229 50.0854 54.6887 50.0724 54.6659 50.0335L43.229 31.9447C43.1948 31.8928 43.2062 31.802 43.2518 31.7631C43.2974 31.7241 43.3772 31.7371 43.4114 31.789L54.8483 49.8778C54.8825 49.9297 54.8711 50.0205 54.8255 50.0594C54.8027 50.0724 54.7799 50.0854 54.7571 50.0854Z" fill="#BA0315"/>
<path d="M25.0531 40.1976C25.0075 40.1976 24.9619 40.1716 24.9505 40.1197C24.9277 40.0548 24.9619 39.977 25.0189 39.951L43.2974 31.7501C43.3544 31.7241 43.4228 31.7501 43.4456 31.8279C43.4685 31.8928 43.4342 31.9707 43.3772 31.9966L25.0987 40.1976C25.0759 40.1976 25.0645 40.1976 25.0531 40.1976Z" fill="#BA0315"/>
<path d="M8.96391 70.9121C8.9183 70.9121 8.87266 70.8861 8.86125 70.8342C8.83845 70.7693 8.86129 70.6915 8.9297 70.6655L36.3189 58.2084C36.376 58.1825 36.4444 58.2084 36.4672 58.2863C36.49 58.3512 36.4672 58.429 36.3988 58.455L9.00949 70.9121C8.99809 70.8991 8.97531 70.9121 8.96391 70.9121Z" fill="#BA0315"/>
<path d="M89.6949 50.1372C89.6607 50.1372 89.6265 50.1243 89.6037 50.0854L81.599 37.784C81.5648 37.7321 81.5762 37.6412 81.6218 37.6023C81.6675 37.5634 81.7473 37.5764 81.7815 37.6283L89.7861 49.9297C89.8204 49.9816 89.809 50.0724 89.7634 50.1113C89.7405 50.1243 89.7177 50.1372 89.6949 50.1372Z" fill="#BA0315"/>
<path d="M54.7571 50.0854C54.7115 50.0854 54.6659 50.0594 54.6545 50.0075C54.6316 49.9426 54.6544 49.8648 54.7229 49.8388L81.6446 37.6023C81.7016 37.5764 81.7701 37.6023 81.7929 37.6802C81.8157 37.7451 81.7929 37.8229 81.7245 37.8488L54.8027 50.0854C54.7913 50.0854 54.7799 50.0854 54.7571 50.0854Z" fill="#BA0315"/>
<path d="M28.2116 26.884C28.1774 26.884 28.1432 26.871 28.1204 26.8321L16.7063 8.58762C16.6721 8.53572 16.6836 8.4449 16.7292 8.40598C16.7862 8.36705 16.8546 8.38001 16.8888 8.43191L28.3029 26.6764C28.3371 26.7283 28.3257 26.8191 28.2801 26.8581C28.2573 26.884 28.2344 26.884 28.2116 26.884Z" fill="#BA0315"/>
<path d="M54.9281 30.9845C54.8825 30.9845 54.8369 30.9585 54.8255 30.9066C54.8027 30.8417 54.8255 30.7639 54.8939 30.7379L82.4656 18.3327C82.5226 18.3068 82.5911 18.3327 82.6139 18.4106C82.6367 18.4755 82.6139 18.5533 82.5454 18.5793L54.9737 30.9845C54.9623 30.9845 54.9509 30.9845 54.9281 30.9845Z" fill="#BA0315"/>
<path d="M47.8243 58.2344C47.7786 58.2344 47.733 58.2084 47.7216 58.1565C47.6988 58.0917 47.7216 58.0138 47.79 57.9878L66.7869 49.3327C66.8439 49.3068 66.9124 49.3327 66.9352 49.4106C66.958 49.4755 66.9352 49.5533 66.8668 49.5793L47.8699 58.2344C47.8585 58.2344 47.8471 58.2344 47.8243 58.2344Z" fill="#BA0315"/>
<path d="M47.8243 58.2344C47.79 58.2344 47.7559 58.2214 47.7331 58.1825L35.9883 39.406C35.9541 39.3541 35.9655 39.2633 36.0111 39.2243C36.0681 39.1854 36.1365 39.1984 36.1707 39.2503L47.9155 58.0268C47.9497 58.0787 47.9383 58.1695 47.8927 58.2084C47.8699 58.2344 47.8471 58.2344 47.8243 58.2344Z" fill="#BA0315"/>
<path d="M8.01747 52.0967C7.97186 52.0967 7.92625 52.0707 7.91485 52.0188C7.89205 51.9539 7.91485 51.8761 7.98326 51.8501L36.0453 39.2243C36.1023 39.1984 36.1707 39.2243 36.1935 39.3022C36.2163 39.3671 36.1935 39.4449 36.1251 39.4709L8.06309 52.0967C8.04029 52.0967 8.02887 52.0967 8.01747 52.0967Z" fill="#BA0315"/>
<path d="M8.01747 52.0967C7.98326 52.0967 7.94908 52.0837 7.92627 52.0448L0.195252 39.2892C0.161044 39.2373 0.172445 39.1465 0.229459 39.1075C0.275069 39.0686 0.35487 39.0816 0.389078 39.1465L8.1201 51.902C8.15431 51.9539 8.14291 52.0448 8.08589 52.0837C8.06309 52.0837 8.04028 52.0967 8.01747 52.0967Z" fill="#BA0315"/>
<path d="M43.3316 31.9966C43.286 31.9966 43.2404 31.9577 43.2176 31.9058L35.3041 0.360748C35.2813 0.295867 35.3269 0.218016 35.3839 0.20504C35.441 0.192064 35.5094 0.231002 35.5208 0.295883L43.4342 31.8409C43.457 31.9058 43.4114 31.9836 43.3544 31.9966C43.3544 31.9966 43.343 31.9966 43.3316 31.9966Z" fill="#BA0315"/>
<path d="M54.7571 50.0854C54.7115 50.0854 54.6659 50.0464 54.6431 49.9945L46.855 18.4365C46.8322 18.3716 46.8779 18.2938 46.9349 18.2808C46.9919 18.2678 47.0603 18.3068 47.0717 18.3717L54.8597 49.9297C54.8826 49.9945 54.8369 50.0724 54.7799 50.0854C54.7799 50.0854 54.7685 50.0854 54.7571 50.0854Z" fill="#BA0315"/>
<path d="M81.6902 37.8359C81.6446 37.8359 81.599 37.797 81.5762 37.7451L74.2899 6.18705C74.2785 6.12217 74.3127 6.04432 74.3697 6.03134C74.4267 6.00539 74.4951 6.0573 74.5065 6.12218L81.7929 37.6802C81.8043 37.7451 81.7701 37.8229 81.713 37.8359C81.713 37.8359 81.7017 37.8359 81.6902 37.8359Z" fill="#BA0315"/>
<path d="M55.7719 89.8054C55.7263 89.8054 55.6807 89.7664 55.6579 89.7145L47.7102 58.1436C47.6874 58.0787 47.733 58.0008 47.79 57.9878C47.8471 57.9619 47.9155 58.0138 47.9269 58.0787L55.8746 89.6497C55.8974 89.7146 55.8518 89.7924 55.7947 89.8054C55.7947 89.8054 55.7834 89.8054 55.7719 89.8054Z" fill="#BA0315"/>
<path d="M44.1526 71.0289C44.107 71.0289 44.0614 70.9899 44.0386 70.938L35.9655 39.3671C35.9427 39.3022 35.9883 39.2243 36.0453 39.2114C36.1023 39.1854 36.1707 39.2244 36.1821 39.3022L44.2552 70.8732C44.278 70.9381 44.2324 71.0159 44.1754 71.0289C44.1754 71.0289 44.164 71.0289 44.1526 71.0289Z" fill="#BA0315"/>
<path d="M16.6151 83.6547C16.5695 83.6547 16.5239 83.6158 16.5011 83.5639L7.89208 51.9929C7.86927 51.928 7.90345 51.8501 7.97187 51.8242C8.02888 51.7982 8.0973 51.8372 8.12011 51.915L16.7292 83.486C16.752 83.5509 16.7177 83.6287 16.6493 83.6547C16.6379 83.6547 16.6265 83.6547 16.6151 83.6547Z" fill="#BA0315"/>
<path d="M62.6478 62.7371C62.5337 62.7371 62.4311 62.6593 62.3855 62.5295C62.3285 62.3608 62.3969 62.1791 62.5451 62.1013L89.6037 49.6961C89.752 49.6312 89.9116 49.7091 89.98 49.8778C90.037 50.0464 89.9686 50.2281 89.8203 50.306L62.7618 62.7112C62.7162 62.7371 62.682 62.7371 62.6478 62.7371Z" fill="#BA0315"/>
<path d="M36.3532 58.6496C36.2619 58.6496 36.1707 58.5977 36.1251 58.5069L24.8137 40.2494C24.7224 40.1067 24.7566 39.8991 24.8821 39.7953C25.0075 39.6914 25.1899 39.7304 25.2812 39.8731L36.5926 58.1306C36.6838 58.2733 36.6496 58.4809 36.5242 58.5847C36.4672 58.6237 36.4102 58.6496 36.3532 58.6496Z" fill="#BA0315"/>
<path d="M55.7719 90C55.6579 90 55.5553 89.9222 55.5097 89.7924C55.4526 89.6237 55.5211 89.442 55.6693 89.3642L74.3013 80.7091C74.4495 80.6442 74.6092 80.7221 74.6776 80.8908C74.746 81.0594 74.6662 81.2411 74.518 81.319L55.886 89.9741C55.8518 90 55.8175 90 55.7719 90Z" fill="#BA0315"/>
<path d="M55.7719 90C55.6807 90 55.5895 89.9481 55.5439 89.8573L43.9132 71.0808C43.8219 70.9381 43.8561 70.7304 43.9816 70.6266C44.107 70.5228 44.2894 70.5617 44.3807 70.7045L56.0114 89.481C56.1026 89.6237 56.0684 89.8313 55.943 89.9351C55.886 89.987 55.8289 90 55.7719 90Z" fill="#BA0315"/>
<path d="M16.6151 83.8493C16.5239 83.8493 16.4327 83.7974 16.3757 83.7066L8.72444 70.951C8.63322 70.8083 8.66743 70.6007 8.80427 70.4968C8.9297 70.393 9.11215 70.432 9.20337 70.5877L16.8546 83.3433C16.9458 83.486 16.9116 83.6936 16.7747 83.7974C16.7291 83.8363 16.6721 83.8493 16.6151 83.8493Z" fill="#BA0315"/>
<path d="M16.6151 83.8493C16.5011 83.8493 16.3984 83.7715 16.3528 83.6417C16.2958 83.473 16.3643 83.2914 16.5125 83.2135L44.0386 70.5877C44.1868 70.5228 44.3465 70.6007 44.4149 70.7694C44.4719 70.9381 44.4034 71.1197 44.2552 71.1976L16.7291 83.8234C16.6949 83.8493 16.6607 83.8493 16.6151 83.8493Z" fill="#BA0315"/>
<path d="M0.286456 39.5358C0.172429 39.5358 0.0697922 39.4579 0.0241815 39.3281C-0.032832 39.1595 0.0356009 38.9778 0.183836 38.9129L28.109 26.4688C28.2572 26.4039 28.4169 26.4818 28.4739 26.6504C28.5309 26.8191 28.4625 27.0008 28.3143 27.0657L0.389076 39.5098C0.354868 39.5228 0.320664 39.5358 0.286456 39.5358Z" fill="#BA0315"/>
<path d="M16.7976 8.83418C16.6835 8.83418 16.5809 8.75632 16.5353 8.62655C16.4783 8.45786 16.5467 8.27619 16.6949 8.21131L35.3155 0.0233577C35.4637 -0.0415231 35.6234 0.049329 35.6804 0.205043C35.7374 0.373733 35.669 0.555408 35.5208 0.620289L16.9002 8.80824C16.866 8.83419 16.8318 8.83418 16.7976 8.83418Z" fill="#BA0315"/>
<path d="M46.9691 18.722C46.8778 18.722 46.798 18.6701 46.741 18.5922L35.1901 0.51646C35.0989 0.373722 35.1217 0.166096 35.2585 0.0622866C35.3839 -0.0415226 35.5664 -0.0155734 35.6576 0.14014L47.2085 18.203C47.2997 18.3457 47.2769 18.5533 47.1401 18.6571C47.0831 18.6961 47.0261 18.722 46.9691 18.722Z" fill="#BA0315"/>
<path d="M46.9691 18.722C46.855 18.722 46.7524 18.6441 46.7068 18.5144C46.6498 18.3457 46.7182 18.1641 46.8664 18.0992L74.3013 5.86263C74.4495 5.79775 74.6092 5.87562 74.6662 6.04431C74.7232 6.213 74.6548 6.39468 74.5065 6.45956L47.0717 18.6961C47.0375 18.709 47.0033 18.722 46.9691 18.722Z" fill="#BA0315"/>
<path d="M82.4998 18.7739C82.4086 18.7739 82.3288 18.735 82.2718 18.6442L74.1759 6.35574C74.0847 6.21301 74.1075 6.00538 74.2329 5.90157C74.3583 5.79776 74.5408 5.82374 74.632 5.96647L82.7279 18.2549C82.8191 18.3976 82.7963 18.6052 82.6709 18.709C82.6253 18.748 82.5682 18.7739 82.4998 18.7739Z" fill="#BA0315"/>
<path d="M66.8211 49.7739C66.7299 49.7739 66.6501 49.7221 66.5931 49.6442L54.7001 31.0494C54.6089 30.9066 54.6317 30.699 54.7685 30.5952C54.8939 30.4914 55.0764 30.5174 55.1676 30.6601L67.0606 49.2549C67.1518 49.3976 67.129 49.6053 66.9922 49.7091C66.9352 49.761 66.8782 49.7739 66.8211 49.7739Z" fill="#BA0315"/>
<path d="M36.3532 58.6496C36.2277 58.6496 36.1137 58.5588 36.0795 58.4161L27.9266 26.8451C27.881 26.6764 27.9722 26.4947 28.1204 26.4428C28.2687 26.3909 28.4283 26.4947 28.4739 26.6634L36.6268 58.2344C36.6724 58.4031 36.5812 58.5848 36.433 58.6367C36.4102 58.6497 36.3874 58.6496 36.3532 58.6496Z" fill="#BA0315"/>
<path d="M8.96392 71.1067C8.83849 71.1067 8.72444 71.0159 8.69023 70.8732L0.0128048 39.3022C-0.032806 39.1335 0.047017 38.9519 0.195252 38.8999C0.343487 38.848 0.503122 38.9388 0.548732 39.1075L9.22616 70.6785C9.27177 70.8472 9.19195 71.0289 9.04371 71.0808C9.02091 71.0938 8.98673 71.1067 8.96392 71.1067Z" fill="#BA0315"/>
<path d="M25.0531 40.3922C24.9277 40.3922 24.8137 40.3014 24.7794 40.1586L16.5239 8.60063C16.4783 8.43194 16.5695 8.25028 16.7177 8.19837C16.866 8.14647 17.0256 8.25025 17.0712 8.41894L25.3268 39.977C25.3724 40.1456 25.2812 40.3273 25.1329 40.3792C25.1101 40.3922 25.0759 40.3922 25.0531 40.3922Z" fill="#BA0315"/>
<path d="M89.6949 50.3319C89.5695 50.3319 89.4555 50.2411 89.4213 50.0854L82.2262 18.5274C82.192 18.3587 82.2832 18.177 82.4314 18.1381C82.5911 18.0992 82.7393 18.19 82.7849 18.3716L89.98 49.9297C90.0142 50.0984 89.923 50.28 89.7748 50.3189C89.7406 50.3319 89.7178 50.3319 89.6949 50.3319Z" fill="#BA0315"/>
<path d="M62.6478 62.7371C62.5223 62.7371 62.4083 62.6463 62.3741 62.5035L54.6659 30.9326C54.6203 30.7639 54.7115 30.5822 54.8597 30.5303C55.008 30.4784 55.1676 30.5822 55.2132 30.7509L62.9214 62.3219C62.967 62.4906 62.8758 62.6722 62.7276 62.7241C62.6934 62.7371 62.6706 62.7371 62.6478 62.7371Z" fill="#BA0315"/>
<path d="M74.4039 81.3449C74.2785 81.3449 74.1645 81.2541 74.1303 81.1114L66.5475 49.5404C66.5019 49.3717 66.5931 49.19 66.7527 49.1381C66.901 49.0862 67.0606 49.19 67.1062 49.3587L74.689 80.9297C74.7346 81.0984 74.6434 81.28 74.4838 81.3319C74.461 81.3449 74.4267 81.3449 74.4039 81.3449Z" fill="#BA0315"/>
</svg>
