<svg width="78" height="90" viewBox="0 0 78 90" fill="none" xmlns="http://www.w3.org/2000/svg">
<path fill-rule="evenodd" clip-rule="evenodd" d="M39 5.25301L37.871 13.4503C35.6578 29.5206 22.0657 42.3555 4.46491 45C22.0657 47.6446 35.6578 60.4794 37.871 76.5497L39 84.747L40.129 76.5497C42.3422 60.4794 55.9343 47.6445 73.5351 45C55.9343 42.3555 42.3422 29.5206 40.129 13.4503L39 5.25301ZM36.468 13.2911L38.2985 0L39.7015 4.30307e-08L41.532 13.2911C43.6689 28.8069 56.7987 41.1971 73.797 43.7384L78 44.3668V45.6332L73.797 46.2616C56.7987 48.8029 43.669 61.1931 41.532 76.7089L39.7015 90H38.2985L36.468 76.7089C34.331 61.1931 21.2013 48.8029 4.203 46.2616L7.90136e-07 45.6332L0 44.3668L4.203 43.7384C21.2013 41.1971 34.331 28.8069 36.468 13.2911Z" fill="#BA0315" fill-opacity="0.55"/>
<path fill-rule="evenodd" clip-rule="evenodd" d="M19.8672 70.5438C27.2619 66.3387 36.4828 59.5364 45.749 51.1258C55.0151 42.7153 62.5095 34.3458 67.1423 27.6339C69.4649 24.269 71.0255 21.3816 71.7536 19.151C72.1179 18.0349 72.2515 17.1489 72.2094 16.4844C72.1679 15.8305 71.9651 15.4781 71.7451 15.2784C71.5251 15.0788 71.1369 14.8947 70.4165 14.857C69.6844 14.8188 68.7082 14.9401 67.4786 15.2708C65.0211 15.9316 61.84 17.3481 58.1328 19.4563C50.7381 23.6613 41.5171 30.4636 32.251 38.8742C22.9848 47.2848 15.4905 55.6542 10.8577 62.3661C8.53509 65.731 6.97447 68.6184 6.24641 70.849C5.88212 71.9651 5.74844 72.8512 5.79059 73.5156C5.83207 74.1696 6.03486 74.5219 6.25486 74.7216C6.47486 74.9213 6.86305 75.1054 7.58352 75.143C8.31557 75.1813 9.29177 75.0599 10.5214 74.7293C12.9789 74.0684 16.16 72.6519 19.8672 70.5438ZM5.25501 75.6291C9.53458 79.5135 28.112 68.9494 46.7488 52.0334C65.3857 35.1174 77.0245 18.2553 72.745 14.3709C68.4654 10.4865 49.888 21.0507 31.2511 37.9667C12.6143 54.8827 0.975438 71.7447 5.25501 75.6291Z" fill="#BA0315" fill-opacity="0.55"/>
<path fill-rule="evenodd" clip-rule="evenodd" d="M10.8577 27.6339C15.4905 34.3458 22.9849 42.7153 32.251 51.1259C41.5172 59.5364 50.7381 66.3388 58.1328 70.5438C61.84 72.652 65.0211 74.0685 67.4786 74.7293C68.7082 75.06 69.6844 75.1813 70.4165 75.143C71.1369 75.1054 71.5251 74.9213 71.7451 74.7216C71.9651 74.522 72.1679 74.1696 72.2094 73.5157C72.2515 72.8512 72.1179 71.9651 71.7536 70.849C71.0255 68.6184 69.4649 65.7311 67.1423 62.3662C62.5095 55.6543 55.0151 47.2848 45.749 38.8742C36.4828 30.4637 27.2619 23.6613 19.8672 19.4563C16.16 17.3482 12.9789 15.9316 10.5214 15.2708C9.29177 14.9402 8.31557 14.8188 7.58353 14.8571C6.86306 14.8947 6.47486 15.0788 6.25487 15.2785C6.03487 15.4782 5.83207 15.8305 5.7906 16.4845C5.74845 17.1489 5.88213 18.035 6.24642 19.1511C6.97447 21.3817 8.5351 24.269 10.8577 27.6339ZM5.25501 14.3709C0.975444 18.2554 12.6143 35.1174 31.2512 52.0334C49.888 68.9494 68.4654 79.5136 72.745 75.6292C77.0246 71.7448 65.3857 54.8827 46.7488 37.9667C28.112 21.0507 9.53458 10.4865 5.25501 14.3709Z" fill="#BA0315" fill-opacity="0.55"/>
</svg>
