<svg width="90" height="90" viewBox="0 0 90 90" fill="none" xmlns="http://www.w3.org/2000/svg">
<path d="M43.4529 89.0599C39.1936 87.2459 35.0843 82.6782 31.7577 75.8985C19.9386 76.7337 10.5264 73.4972 5.92788 67.0306C2.28169 61.9083 1.98817 55.0959 5.09298 47.8463L5.17124 47.6636L5.25604 47.8398C14.0356 65.7778 39.0175 79.0828 60.9533 77.5102L61.1033 77.4972L61.0446 77.6342C57.705 85.4319 52.9956 89.7973 47.784 89.9278C46.3425 89.967 44.8879 89.6668 43.4529 89.0599ZM31.8686 75.7092L31.8947 75.7614C36.3171 84.7924 42.1158 89.8886 47.784 89.7451C52.8847 89.6146 57.5093 85.3405 60.8163 77.6994C38.9327 79.2068 14.0551 65.967 5.18428 48.0943C2.18385 55.2133 2.49695 61.8952 6.07791 66.9132C10.6568 73.3471 20.0299 76.551 31.8099 75.7027L31.8686 75.7092Z" fill="#BA0315"/>
<path d="M27.7528 85.6081C21.4649 82.9327 16.038 78.4107 13.429 73.0795L13.592 73.0012C18.0144 82.0387 30.6032 88.7467 41.6592 87.9506L41.6722 88.1334C37.0672 88.4661 32.1947 87.5004 27.7528 85.6081Z" fill="#BA0315"/>
<path d="M28.3464 84.4661C17.61 79.8985 8.33475 72.166 3.87323 63.0632L4.03629 62.9849C11.6157 78.4694 33.1862 89.9539 52.115 88.5966L52.1281 88.7794C44.2617 89.347 35.9388 87.6962 28.3464 84.4661Z" fill="#BA0315"/>
<path d="M18.0275 80.8838C17.7079 80.7467 17.4143 80.5706 17.1534 80.3617C14.453 78.1954 14.9683 72.3487 18.5884 63.8985L18.758 63.9703C15.1705 72.3357 14.6422 78.1105 17.2708 80.2182C19.769 82.2345 24.9219 80.6358 31.7642 75.7288L31.8686 75.8789C25.6655 80.3291 20.8192 82.0714 18.0275 80.8838Z" fill="#BA0315"/>
<path d="M30.9033 87.7549C29.5857 87.1937 30.6162 80.949 31.7251 75.781L31.9012 75.8202C29.7618 85.8103 30.5119 87.3895 30.975 87.5852C30.988 87.5918 30.9946 87.5918 31.0011 87.5918C31.412 87.7223 33.1862 87.1741 38.6 74.5543L38.7696 74.626C36.5649 79.7614 32.6252 88.2965 30.9489 87.7679C30.9293 87.7679 30.9163 87.7614 30.9033 87.7549Z" fill="#BA0315"/>
<path d="M43.4529 89.0599C39.1805 87.2459 35.0647 82.6586 31.7316 75.8463L31.6729 75.7223L31.8099 75.7092C53.7392 74.1366 77.4883 59.0698 84.7546 42.1236L84.8328 41.9409L84.9242 42.1236C88.9095 50.2672 89.0465 58.3389 85.3025 64.8446C81.0823 72.1921 72.2375 76.8707 61.025 77.6864C57.6854 85.4515 52.9891 89.7973 47.7905 89.9278C46.3425 89.967 44.8879 89.6668 43.4529 89.0599ZM31.9534 75.8854C36.3693 84.8446 42.1353 89.8886 47.784 89.7516C52.9173 89.6211 57.568 85.2949 60.8815 77.5689L60.9011 77.5167L60.9598 77.5102C72.1332 76.7076 80.9454 72.0616 85.146 64.7533C88.8313 58.3455 88.7204 50.4042 84.8459 42.3781C77.4753 59.2721 53.8305 74.2606 31.9534 75.8854Z" fill="#BA0315"/>
<path d="M41.6722 88.1334L41.6592 87.9506C47.2817 87.5461 51.7172 85.21 53.8305 81.5363C55.696 78.2932 55.6243 74.2606 53.6348 70.1954L53.7979 70.1171C55.8199 74.241 55.8852 78.3324 53.9936 81.6342C51.8476 85.3536 47.36 87.7288 41.6722 88.1334Z" fill="#BA0315"/>
<path d="M52.1281 88.7794L52.115 88.5966C61.7556 87.905 69.3676 83.8919 72.9877 77.5885C76.1903 72.0159 76.0729 65.1057 72.655 58.1301L72.8181 58.0518C76.262 65.0861 76.3795 72.0616 73.1507 77.6864C69.498 84.0355 61.8339 88.0811 52.1281 88.7794Z" fill="#BA0315"/>
<path d="M43.3485 82.8479C39.4349 81.1839 35.5278 78.8479 31.7512 75.8724L31.8621 75.7288C42.3832 84.0094 53.974 87.3503 63.6667 84.8838C70.6199 83.1154 75.8511 78.5477 78.7929 71.6766L78.9624 71.7484C75.9946 78.6782 70.7178 83.2785 63.7124 85.0665C57.4506 86.6586 50.3931 85.843 43.3485 82.8479Z" fill="#BA0315"/>
<path d="M31.7838 75.8919L31.8425 75.7158C55.2003 83.409 80.1104 75.8919 87.3702 58.9588L87.5398 59.0306C80.2409 76.0485 55.2329 83.6113 31.7838 75.8919Z" fill="#BA0315"/>
<path d="M31.7577 75.8985L31.7316 75.8463C22.926 57.8626 21.6867 29.4059 28.9725 12.4075L28.9921 12.3553L29.0443 12.3488C51.0388 10.7697 76.1055 24.1269 84.9177 42.1236L84.9372 42.1628L84.9177 42.2019C77.6253 59.2003 53.8044 74.3193 31.8164 75.8985H31.7577ZM29.116 12.525C21.8824 29.4646 23.1152 57.7778 31.8686 75.7027C53.7653 74.104 77.4622 59.0763 84.7416 42.1628C75.949 24.264 51.0192 10.985 29.116 12.525Z" fill="#BA0315"/>
<path d="M53.6348 70.1954C49.2125 61.1579 36.6171 54.4499 25.5677 55.246L25.5546 55.0633C36.6693 54.2672 49.3429 61.0143 53.7979 70.1171L53.6348 70.1954Z" fill="#BA0315"/>
<path d="M72.6615 58.1236C65.0756 42.6391 43.5116 31.1481 24.5828 32.5119L24.5697 32.3292C43.5638 30.9654 65.2126 42.5021 72.8246 58.0453L72.6615 58.1236Z" fill="#BA0315"/>
<path d="M31.8686 75.8789L31.7642 75.7288C46.2772 65.3079 63.9994 43.0307 71.2657 26.0715L71.4353 26.1432C64.1494 43.1285 46.4012 65.4384 31.8686 75.8789Z" fill="#BA0315"/>
<path d="M31.7251 75.781C35.2082 59.4743 43.9747 32.3945 51.254 15.4092L51.4236 15.4809C44.1443 32.4597 35.3909 59.5265 31.9077 75.8202L31.7251 75.781Z" fill="#BA0315"/>
<path d="M14.3552 73.5167C10.7807 71.9963 7.91076 69.8104 5.92787 67.0241C2.2882 61.9083 1.98817 55.1155 5.07992 47.8789C1.1076 39.7484 0.977133 31.6897 4.71463 25.1905C8.94134 17.83 17.8122 13.1514 29.0508 12.3423L29.2008 12.3292L29.1421 12.4663C21.8693 29.432 23.1086 57.8169 31.8947 75.7614L31.9534 75.8854L31.8164 75.8985C25.0655 76.3748 19.0906 75.533 14.3552 73.5167ZM28.9138 12.5446C17.8122 13.3798 9.05223 18.0193 4.8777 25.2884C1.16629 31.7419 1.30327 39.755 5.26907 47.8398L5.28864 47.8789L5.26907 47.9181C2.19036 55.1089 2.47736 61.8561 6.0844 66.9262C10.6438 73.334 19.9647 76.5314 31.6795 75.7223C22.9391 57.7778 21.7062 29.5168 28.9138 12.5446Z" fill="#BA0315"/>
<path d="M13.429 73.0795C11.4069 68.9556 11.3417 64.8642 13.2398 61.569C15.3792 57.843 19.8734 55.4743 25.5612 55.0633L25.5742 55.246C19.9517 55.6505 15.5097 57.9866 13.4029 61.6603C11.5374 64.9034 11.6091 68.9295 13.5986 73.0012L13.429 73.0795Z" fill="#BA0315"/>
<path d="M3.87323 63.0632C0.429245 56.0225 0.311835 49.0535 3.54057 43.4287C7.19327 37.0731 14.8574 33.0274 24.5632 32.3292L24.5762 32.5119C14.9357 33.2036 7.32373 37.2166 3.70363 43.52C0.500993 49.0926 0.618403 56.0029 4.03629 62.9849L3.87323 63.0632Z" fill="#BA0315"/>
<path d="M31.7577 75.8724C13.0441 61.1318 3.75582 35.3047 11.0482 18.2933L11.2178 18.3651C3.95801 35.2982 13.2202 61.0339 31.8686 75.7288L31.7577 75.8724Z" fill="#BA0315"/>
<path d="M27.0288 74.104C22.1433 72.029 17.7405 69.3667 13.8856 66.1562C9.05224 62.1301 5.30168 57.3406 3.02526 52.3096C-0.223038 45.1122 -0.412181 37.7452 2.47085 31.0176L2.64043 31.0894C-0.223036 37.7713 -0.0338807 45.0861 3.18833 52.2378C7.91728 62.7305 18.3536 71.2981 31.8295 75.7223L31.7708 75.8985C30.1531 75.3569 28.5681 74.7565 27.0288 74.104Z" fill="#BA0315"/>
<path d="M33.4275 72.7011C20.9953 67.4156 10.2589 58.4629 5.09297 47.9246L5.0734 47.8855L5.09298 47.8463C12.3788 30.848 36.1997 15.742 58.1942 14.1628L58.2529 14.1563L58.279 14.215C67.0846 32.1987 68.3239 60.6554 61.0381 77.6407L61.0185 77.6929L60.9598 77.6994C51.8541 78.3454 42.2201 76.4401 33.4275 72.7011ZM5.28213 47.8789C14.0747 65.7778 39.0044 79.0632 60.9011 77.5167C68.1348 60.5836 66.902 32.277 58.1485 14.3521C36.2453 15.9442 12.5549 30.9719 5.28213 47.8789Z" fill="#BA0315"/>
<path d="M41.6657 53.4058C30.9293 48.8381 21.6541 41.1057 17.1926 32.0029L17.3556 31.9246C24.935 47.4091 46.5055 58.9001 65.4344 57.5363L65.4474 57.719C57.5811 58.2802 49.2581 56.6358 41.6657 53.4058Z" fill="#BA0315"/>
<path d="M18.7515 63.9703L18.5819 63.8985C25.8612 46.9197 43.6094 24.6098 58.142 14.1759L58.2529 14.326C43.7399 24.7468 26.0243 47.0176 18.7515 63.9703Z" fill="#BA0315"/>
<path d="M38.7631 74.6326L38.5935 74.5608C45.8663 57.6016 54.6198 30.5413 58.1094 14.2346L58.2855 14.2738C54.7959 30.587 46.0424 57.6668 38.7631 74.6326Z" fill="#BA0315"/>
<path d="M60.8163 77.706L60.875 77.5689C68.1413 60.6228 66.902 32.2378 58.1159 14.2933L58.0572 14.1694L58.1942 14.1628C70.0394 13.308 79.4777 16.538 84.0893 23.0242C87.7224 28.1335 88.029 34.9263 84.9372 42.1628C88.9096 50.2933 89.04 58.352 85.3025 64.8512C81.0758 72.2052 72.2049 76.8903 60.9663 77.6994L60.8163 77.706ZM58.3442 14.3325C67.0716 32.277 68.3109 60.5314 61.1033 77.4972C72.205 76.6619 80.9649 72.0224 85.146 64.7533C88.8574 58.2998 88.7204 50.2868 84.7546 42.1954L84.735 42.1563L84.7546 42.1171C87.8333 34.9328 87.5463 28.1857 83.9458 23.122C79.3864 16.7207 70.059 13.5234 58.3442 14.3325Z" fill="#BA0315"/>
<path d="M65.4474 57.719L65.4344 57.5363C75.0749 56.8447 82.6869 52.8316 86.307 46.5282C89.5096 40.9556 89.3922 34.0453 85.9743 27.0633L86.1374 26.985C89.5814 34.0192 89.6988 40.9948 86.47 46.6195C82.8173 52.9752 75.1532 57.0208 65.4474 57.719Z" fill="#BA0315"/>
<path d="M78.969 71.7484L78.7994 71.6766C86.0591 54.7435 76.7904 29.0209 58.142 14.326L58.2529 14.1824C76.9665 28.923 86.2613 54.7435 78.969 71.7484Z" fill="#BA0315"/>
<path d="M87.5332 59.0306L87.3637 58.9589C90.2271 52.277 90.038 44.9687 86.8158 37.817C82.0868 27.3308 71.644 18.7697 58.1681 14.3325L58.2268 14.1563C65.0365 16.401 71.0569 19.6767 76.1251 23.892C80.9584 27.9181 84.7155 32.7011 86.9854 37.7387C90.2271 44.9426 90.4228 52.3031 87.5332 59.0306Z" fill="#BA0315"/>
<path d="M84.8459 42.3781L84.7611 42.2019C75.9816 24.2705 50.9931 10.9589 29.0639 12.5315L28.9138 12.5446L28.9725 12.4075C32.3122 4.61636 37.0216 0.250952 42.2267 0.120446C47.9666 -0.0231096 53.8044 5.09271 58.2594 14.1563C70.0785 13.3211 79.4908 16.5511 84.0958 23.0242C87.742 28.14 88.0355 34.9524 84.9242 42.2019L84.8459 42.3781ZM56.5831 17.3406C68.9436 22.6 79.6343 31.4744 84.8264 41.9409C87.8268 34.8219 87.5072 28.1465 83.9392 23.1286C79.3668 16.7012 69.9807 13.4973 58.2007 14.3455L58.142 14.3521L58.1159 14.2933C53.6935 5.26236 47.9014 0.159598 42.2267 0.303154C37.1259 0.43366 32.5013 4.70772 29.2008 12.3423C38.2674 11.7159 47.8427 13.6212 56.5831 17.3406Z" fill="#BA0315"/>
<path d="M85.9743 27.0633C78.3884 11.5788 56.8244 0.0878202 37.8956 1.4516L37.8825 1.2689C56.8831 -0.0948873 78.5254 11.4418 86.1374 26.985L85.9743 27.0633Z" fill="#BA0315"/>
<path d="M71.4287 26.1432L71.2591 26.0715C74.8466 17.7061 75.375 11.9442 72.7463 9.83006C70.2351 7.80722 65.0887 9.41244 58.2464 14.326L58.1355 14.1759C64.3386 9.71913 69.1915 7.97688 71.9832 9.16448C72.3028 9.30151 72.5963 9.47117 72.8572 9.6865C75.5576 11.8529 75.0553 17.6995 71.4287 26.1432Z" fill="#BA0315"/>
<path d="M51.4171 15.4809L51.2475 15.4092C53.4457 10.2738 57.3919 1.74524 59.0617 2.27379C59.0748 2.28031 59.0943 2.28684 59.1073 2.29336C60.4249 2.85454 59.3944 9.09922 58.2855 14.2738L58.1094 14.2346C60.2488 4.23789 59.4987 2.65878 59.0356 2.46302C59.0226 2.45649 59.0161 2.45649 59.0095 2.44997C58.5986 2.31946 56.8244 2.86759 51.4171 15.4809Z" fill="#BA0315"/>
<path d="M5.18427 48.1008L5.09949 47.9246C1.11413 39.7811 0.977137 31.7093 4.71464 25.1971C8.93482 17.8496 17.7861 13.171 28.9921 12.3553C32.3317 4.59679 37.0281 0.250952 42.2201 0.120446C47.9731 -0.0231096 53.824 5.11228 58.279 14.215L58.3377 14.339L58.2007 14.3455C36.2714 15.9181 12.5223 30.9785 5.25603 47.9181L5.18427 48.1008ZM46.486 1.15797C45.0771 0.55764 43.6486 0.264003 42.2267 0.303154C37.0998 0.43366 32.4491 4.75339 29.1356 12.4793L29.116 12.5315L29.0639 12.538C17.8905 13.3407 9.0718 17.9866 4.87771 25.295C1.19239 31.7028 1.30329 39.644 5.17776 47.6701C12.5419 30.7827 36.1866 15.8072 58.0637 14.1824C54.7502 7.4679 50.6866 2.94589 46.486 1.15797Z" fill="#BA0315"/>
<path d="M17.1926 32.0029C13.7486 24.9622 13.6312 17.9932 16.8599 12.3684C20.5126 6.01277 28.1768 1.9671 37.8825 1.2689L37.8956 1.4516C28.2485 2.14328 20.6431 6.15633 17.0164 12.4597C13.8138 18.0323 13.9312 24.9426 17.3556 31.9246L17.1926 32.0029Z" fill="#BA0315"/>
<path d="M11.2113 18.3651L11.0417 18.2933C14.0095 11.37 19.2798 6.7697 26.2852 4.98178C36.0301 2.50217 47.6926 5.84964 58.2529 14.1759L58.142 14.3194C47.6144 6.02582 36.0236 2.69141 26.3308 5.15796C19.3842 6.93283 14.1595 11.5005 11.2113 18.3651Z" fill="#BA0315"/>
<path d="M2.64696 31.0829L2.47736 31.0111C9.76973 13.9997 34.7777 6.44344 58.2268 14.1694L58.1681 14.3455C34.8104 6.64572 9.90671 14.1563 2.64696 31.0829Z" fill="#BA0315"/>
<path d="M27.1332 86.3324C23.8653 84.9425 20.9757 83.0632 19.8277 82.3128C17.173 80.5836 14.6422 78.228 13.8138 77.4515C11.2047 75.0175 9.08487 72.1073 8.17822 70.8609L8.15863 70.8348C7.0302 69.2818 6.41056 68.1856 5.11907 65.7647C4.93644 65.4515 4.76684 65.1252 4.60377 64.799L4.40808 64.3683C3.67102 62.737 2.75133 60.7011 2.26213 59.0633C1.06195 55.0045 0.90541 54.4825 0.32489 50.3651C0.0835505 48.6489 -0.0403878 46.1432 0.0117938 44.1204C0.070498 41.967 0.416213 39.1612 0.696688 37.184C1.02282 34.861 2.43171 29.6865 4.22545 26.0193C5.25603 23.9051 6.63233 21.4777 7.72162 19.8268C8.83048 18.1498 10.4024 16.14 11.6352 14.8219C13.4029 12.9296 16.6903 9.40591 22.5738 5.98667C23.9892 5.16448 28.2811 2.6653 35.3061 1.06661C40.4264 -0.101413 45.5532 -0.0948875 47.7775 0.0943455C50.6279 0.335781 52.0498 0.459761 55.2655 1.19059C58.279 1.88227 60.9598 2.93284 61.9708 3.33088C62.0034 3.33741 65.1669 4.60984 68.2 6.44996C70.8286 8.04865 72.0484 9.0144 74.1422 10.7175C75.8642 12.1139 79.5234 15.6245 82.3412 19.8986C83.424 21.5429 84.6568 23.6832 85.4134 25.2232C85.7982 26.0062 87.0963 28.7272 87.7551 30.9589C89.04 35.3243 89.04 35.3243 89.6923 39.6506C89.914 41.1122 90.0119 43.1546 89.9989 45.8887C89.9923 48.1856 89.6271 51.0633 89.314 52.8316C88.9487 54.8936 88.2116 57.5559 87.6376 59.3634C86.307 63.5592 83.7045 68.1334 82.2825 70.1823C81.141 71.8332 79.5691 73.843 78.3754 75.1872C77.3122 76.3748 75.675 78.0583 74.2531 79.2002C72.518 80.5967 70.5221 82.1562 68.8588 83.1611C65.2909 85.3144 63.4319 86.0779 61.6317 86.8218C56.7266 88.8381 50.5431 90.0257 45.0836 89.9996C41.0134 89.98 38.15 89.5102 37.1129 89.3079C33.1536 88.5379 31.4512 88.0028 28.0333 86.6782C27.7332 86.5869 27.4332 86.4629 27.1332 86.3324ZM6.22792 67.4417C6.95194 68.7468 7.49331 69.6211 8.30213 70.7304L8.3217 70.7565C9.22183 71.9963 11.3417 74.9001 13.9312 77.3144C14.7661 78.091 17.2774 80.44 19.9256 82.1627C21.1779 82.9784 24.511 85.1448 28.105 86.5347C31.5099 87.8528 33.2058 88.3878 37.152 89.1513C38.1891 89.3536 41.0395 89.8234 45.0901 89.843C50.53 89.8625 56.6875 88.688 61.5664 86.6847C63.3602 85.9474 65.2126 85.1839 68.7675 83.0371C70.4243 82.0387 72.4137 80.4792 74.1422 79.0893C75.5576 77.9539 77.1817 76.2769 78.2384 75.0959C79.4321 73.7582 80.9976 71.7549 82.139 70.1105C83.5544 68.0681 86.1374 63.5135 87.468 59.3373C88.042 57.5363 88.7791 54.8806 89.1379 52.8316C89.4444 51.0698 89.8097 48.2052 89.8162 45.9213C89.8292 43.1938 89.7314 41.1579 89.5097 39.7093C88.8574 35.3961 88.8574 35.3961 87.5789 31.0372C86.9267 28.8251 85.6352 26.1106 85.2503 25.3341C84.5002 23.8007 83.2674 21.6669 82.1912 20.0291C79.3864 15.7746 75.7402 12.277 74.0313 10.8871C71.9375 9.18405 70.7243 8.21831 68.1087 6.63267C65.0822 4.79254 61.9382 3.53317 61.9056 3.52664C60.9011 3.1286 58.2268 2.07803 55.2264 1.39288C52.0238 0.662045 50.6018 0.538064 47.7775 0.296629C45.5532 0.107396 40.446 0.100871 35.3452 1.26237C28.3529 2.85454 24.074 5.34719 22.6651 6.16285C16.8012 9.56904 13.5268 13.0796 11.7657 14.9654C10.5394 16.277 8.97398 18.2803 7.87165 19.9442C6.78236 21.5886 5.4191 24.0095 4.38851 26.1171C2.6013 29.7648 1.19893 34.9132 0.872794 37.2297C0.592318 39.2003 0.253146 41.9997 0.187919 44.1465C0.129215 46.1563 0.253127 48.6554 0.494467 50.3585C1.07499 54.4629 1.22502 54.9784 2.4252 59.0176C2.90788 60.6489 3.82758 62.6782 4.56464 64.3096L4.7538 64.7337C4.93644 65.073 5.10603 65.3928 5.26257 65.6929C9.39796 72.8446 19.1102 76.5771 31.549 75.7419C31.6273 75.7353 31.7121 75.7288 31.7969 75.7223L31.8099 75.905C20.1995 76.7272 10.9112 73.6081 6.22792 67.4417Z" fill="#BA0315"/>
<path d="M50.53 32.016C39.174 27.1873 32.547 17.0927 35.7692 9.52337C38.9849 1.95405 50.8431 -0.277595 62.2056 4.55111C73.5616 9.37981 80.1887 19.4744 76.9665 27.0437C73.7508 34.6196 61.8861 36.8512 50.53 32.016ZM62.1339 4.72077C50.8692 -0.0687864 39.1153 2.11718 35.9388 9.59515C32.7622 17.0731 39.3371 27.0568 50.6018 31.8463C61.8665 36.6359 73.6204 34.4499 76.7969 26.972C79.9735 19.5005 73.3986 9.51684 62.1339 4.72077Z" fill="#BA0315"/>
</svg>
