<svg width="185" height="184" viewBox="0 0 185 184" fill="none" xmlns="http://www.w3.org/2000/svg">
<g clip-path="url(#clip0_391_1033)">
<path d="M86.4325 67.012H85.0825V116.938H97.5258C99.9743 116.938 102.325 116.638 104.524 116.053C106.717 115.464 108.775 114.614 110.628 113.529C112.478 112.448 114.169 111.125 115.64 109.604C117.11 108.089 118.382 106.393 119.41 104.554C120.445 102.715 121.248 100.703 121.789 98.5815C122.328 96.4585 122.605 94.2349 122.605 91.9721C122.605 89.7093 122.319 87.3812 121.754 85.2477C121.189 83.1195 120.379 81.0987 119.337 79.2573C118.289 77.4006 116.999 75.7052 115.506 74.2049C114.013 72.7099 112.312 71.4196 110.463 70.3527C108.615 69.291 106.581 68.4564 104.417 67.8804C102.244 67.3011 99.928 67.012 97.5258 67.012H86.4325ZM96.7097 74.0618C99.7589 74.0618 102.456 74.5494 104.733 75.5129C106.995 76.4782 108.899 77.778 110.394 79.3775C111.89 80.9818 113.031 82.8814 113.778 85.022C114.544 87.1956 114.933 89.5323 114.933 91.9716C114.933 94.411 114.537 96.7248 113.767 98.9098C113.006 101.053 111.861 102.962 110.367 104.57C108.869 106.173 106.97 107.468 104.715 108.428C102.453 109.393 99.7612 109.878 96.7092 109.878H92.5847V74.0618H96.7092H96.7097Z" fill="#C3C3C3" fill-opacity="0.8"/>
<path d="M133.574 67.9807C131.949 68.6253 130.516 69.5377 129.319 70.6991C128.119 71.8549 127.161 73.2377 126.487 74.8033C125.809 76.3737 125.467 78.0982 125.467 79.9201C125.467 81.5778 125.744 83.0971 126.295 84.4237C126.835 85.7321 127.601 86.9298 128.571 87.9844C129.511 89.0141 130.643 89.9394 131.935 90.7405C133.162 91.5107 134.543 92.2441 136.027 92.9193L136.01 92.9127L139.47 94.5565C140.745 95.1353 141.817 95.7409 142.689 96.3564C143.516 96.9434 144.197 97.5666 144.707 98.2155C145.194 98.8258 145.555 99.4867 145.771 100.169C145.994 100.876 146.106 101.679 146.106 102.549C146.106 103.562 145.926 104.543 145.563 105.456C145.206 106.358 144.684 107.166 144.013 107.858C143.345 108.549 142.513 109.107 141.537 109.512C140.56 109.917 139.427 110.126 138.164 110.126C137.036 110.126 135.949 109.967 134.928 109.652C133.908 109.337 132.955 108.871 132.095 108.272C131.224 107.674 130.432 106.93 129.736 106.067C129.041 105.201 128.45 104.21 127.992 103.121L127.281 101.442L122.182 105.939L122.52 106.809C123.119 108.341 123.93 109.746 124.937 111C125.945 112.257 127.13 113.338 128.471 114.222C129.801 115.106 131.305 115.795 132.928 116.276C134.544 116.754 136.291 117 138.096 117C140.422 117 142.561 116.6 144.447 115.815C146.333 115.023 147.967 113.94 149.301 112.593C150.64 111.242 151.687 109.663 152.413 107.886C153.133 106.111 153.501 104.235 153.501 102.3C153.501 100.694 153.298 99.1928 152.899 97.8553C152.489 96.4891 151.848 95.2117 150.99 94.0607C150.143 92.9265 149.054 91.8696 147.747 90.9219C146.479 89.9981 144.949 89.1349 143.198 88.3446L139.897 86.8334C138.54 86.2121 137.377 85.6161 136.433 85.0531C135.535 84.5172 134.801 83.9541 134.248 83.383C133.733 82.8614 133.358 82.2945 133.13 81.6952C132.898 81.0806 132.777 80.3386 132.777 79.4906C132.777 78.6427 132.928 77.8186 133.225 77.1434C133.521 76.4601 133.924 75.8961 134.455 75.4246C134.992 74.9455 135.652 74.5695 136.411 74.297C137.193 74.0227 138.069 73.8862 139.014 73.8862C139.874 73.8862 140.687 73.9888 141.445 74.2049C142.211 74.4221 142.947 74.7341 143.624 75.1264C144.31 75.5186 144.963 76.0034 145.556 76.5546C146.164 77.1234 146.727 77.7499 147.226 78.4222L148.181 79.6949L152.72 74.6721L152.135 73.8036C151.448 72.7896 150.633 71.8491 149.714 71.0165C148.789 70.1857 147.756 69.4652 146.647 68.8715C145.532 68.2775 144.305 67.8146 143 67.4892C141.689 67.1695 140.288 67.0129 138.839 67.0129C136.971 67.0129 135.199 67.3336 133.575 67.9816" fill="#C3C3C3" fill-opacity="0.8"/>
<path d="M82.5943 91.9327C82.5862 89.6738 82.2918 87.4654 81.7206 85.3649C81.6001 84.9178 81.4631 84.4735 81.3128 84.0364C80.7817 82.4097 80.0998 80.8651 79.2701 79.4169C78.2188 77.5702 76.9203 75.8662 75.4111 74.3402C73.9056 72.8232 72.2093 71.4986 70.3603 70.4187C68.5152 69.3365 66.4815 68.4867 64.3188 67.895C63.9998 67.8048 63.6724 67.7308 63.3463 67.6521C61.4945 67.2241 59.5567 67.0007 57.5589 67.0007C57.5462 67.0007 57.5315 67.0079 57.5226 67.0079C57.498 67.0079 57.4881 67.0007 57.4729 67.0007C55.1321 67.0007 52.8607 67.3018 50.724 67.8983C49.9826 68.1016 49.2573 68.3445 48.5462 68.6093C48.5911 68.6289 48.6322 68.6527 48.6723 68.6709L48.8467 68.7658C49.2772 69.0149 49.6693 69.3203 50.0119 69.6667C50.3564 70.0155 50.6555 70.4097 50.9031 70.8329C51.1526 71.2591 51.3444 71.7233 51.48 72.2067C51.5495 72.4725 51.6043 72.7574 51.6402 73.0828L51.6794 73.7375C51.6794 74.0997 51.6463 74.4619 51.5736 74.8202C53.4315 74.1799 55.4227 73.8568 57.5263 73.8568C57.713 73.8568 57.9048 73.8568 58.0929 73.8649C58.1132 73.8649 58.1349 73.8649 58.1571 73.8687C59.5719 73.9193 60.945 74.1364 62.2529 74.5043C62.5983 74.606 62.9466 74.7143 63.2858 74.836C64.4222 75.2382 65.5005 75.7417 66.507 76.3515C67.8187 77.1479 69.0307 78.1099 70.1099 79.2155C71.1872 80.3221 72.1233 81.558 72.8883 82.9003C73.2687 83.565 73.6065 84.2631 73.9047 84.9846C73.9075 84.9865 73.9089 84.9901 73.9089 84.9955C73.9567 85.1072 74.0011 85.2179 74.0469 85.3234C74.0672 85.3773 74.0899 85.4331 74.1102 85.4885C74.122 85.5152 74.1287 85.5419 74.1386 85.571C74.3422 86.1078 74.5232 86.6633 74.6796 87.2297C74.9858 88.3592 75.1876 89.5387 75.2665 90.7417C75.2665 90.7756 75.2703 90.8085 75.2703 90.8424C75.2792 90.9941 75.2887 91.1502 75.2948 91.3033C75.2948 91.3496 75.2948 91.3983 75.2977 91.4432C75.3033 91.6278 75.3095 91.8111 75.3095 91.9991V92.0024C75.3095 94.5644 74.8549 96.9755 73.9604 99.1787C73.4652 100.389 72.8354 101.567 72.0713 102.678L72 102.779C72.0137 102.782 72.0236 102.782 72.0401 102.786C71.4892 103.575 70.882 104.317 70.2148 104.997C68.8266 106.407 67.1921 107.563 65.347 108.443V108.406L64.993 108.58L64.6183 108.761C62.4613 109.681 60.0864 110.149 57.566 110.149C57.3775 110.149 57.1913 110.146 57.0037 110.141C56.9792 110.138 56.9541 110.138 56.9333 110.138C55.5248 110.086 54.1502 109.872 52.8451 109.497C52.494 109.402 52.1449 109.288 51.8023 109.167C50.6734 108.768 49.5923 108.258 48.5849 107.651C47.2723 106.859 46.0593 105.891 44.982 104.789C43.907 103.683 42.9695 102.443 42.2026 101.106C41.8204 100.438 41.4854 99.7389 41.19 99.0188C41.19 99.0188 41.1834 99.0088 41.1834 99.005C41.1352 98.8986 41.0913 98.7888 41.0464 98.68C41.0284 98.6247 41.0025 98.5731 40.9826 98.5187C40.9708 98.492 40.9642 98.4624 40.9486 98.4328C40.9013 98.2954 40.8489 98.1604 40.8016 98.0191C40.5238 97.2346 40.2979 96.4234 40.1373 95.6008C40.1264 95.5464 40.1136 95.4872 40.1042 95.4319C40.0825 95.3212 40.064 95.2195 40.0447 95.1088C40.0281 95.0043 40.0102 94.8993 39.9974 94.7929C39.978 94.6755 39.9596 94.5639 39.9454 94.446C39.9261 94.3148 39.9133 94.1764 39.8949 94.0438C39.8892 93.9736 39.8812 93.9035 39.8746 93.8362C39.8575 93.6415 39.841 93.4511 39.8254 93.2621C39.8254 93.2278 39.8212 93.1968 39.8212 93.1624C39.8127 93.0131 39.8027 92.857 39.7985 92.7048C39.7966 92.6533 39.7928 92.6079 39.7928 92.5597C39.7871 92.3765 39.7871 92.189 39.7871 92.0014C39.7871 89.3884 40.2431 86.9415 41.1447 84.7364C41.663 83.4705 42.308 82.2938 43.0513 81.2187C43.5139 80.553 44.0256 79.9198 44.5756 79.3253C44.5029 79.3157 44.4306 79.3019 44.3606 79.2833C43.8725 79.1454 43.4146 78.9554 42.9913 78.7049C42.5608 78.4554 42.1686 78.1504 41.8223 77.8002C41.4769 77.4514 41.1796 77.0601 40.9311 76.6306C40.7345 76.2766 40.5692 75.8924 40.4402 75.4673L40.4321 75.4511L40.3716 75.2573C40.2474 74.8121 40.1826 74.3421 40.1708 73.8749C40.0106 74.0291 39.8538 74.187 39.6964 74.3421C39.0642 74.9801 38.4764 75.65 37.9221 76.3505C37.9084 76.3734 37.8848 76.3968 37.8725 76.4169C37.7681 76.5514 37.6698 76.6855 37.5644 76.8177C37.4619 76.9556 37.3579 77.0959 37.2535 77.2405C37.1812 77.3388 37.1089 77.4409 37.0376 77.544C36.9544 77.657 36.876 77.7763 36.7961 77.8913C36.7082 78.0216 36.6208 78.1552 36.5348 78.2893C36.472 78.3823 36.4134 78.4759 36.3491 78.5704C36.2074 78.7989 36.0642 79.0313 35.9272 79.2642C35.8988 79.3167 35.8714 79.362 35.8412 79.4097C34.7818 81.2607 33.9464 83.2629 33.3713 85.3816C32.8043 87.4654 32.5156 89.6385 32.5038 91.8516C32.5038 91.9036 32.5 91.9542 32.5 92.0019V92.0683C32.5076 94.3148 32.7972 96.517 33.3718 98.6251C33.497 99.0727 33.6307 99.5232 33.7777 99.9646C34.3088 101.591 34.9996 103.143 35.826 104.589C36.8764 106.431 38.173 108.141 39.6822 109.663C41.1919 111.183 42.8868 112.504 44.7358 113.587C46.5786 114.668 48.6128 115.519 50.7755 116.107C51.1011 116.199 51.428 116.276 51.7593 116.354C53.6063 116.785 55.5422 117.001 57.532 117.001C57.5495 117.001 57.5594 116.998 57.5797 116.998C57.5915 116.998 57.6052 117.001 57.6237 117.001C59.9626 117.001 62.2331 116.695 64.3674 116.108C66.498 115.515 68.5152 114.669 70.3561 113.588C72.2088 112.504 73.9009 111.183 75.3978 109.663C76.0268 109.024 76.6127 108.352 77.1721 107.653L77.2241 107.584C77.9352 106.681 78.5826 105.734 79.161 104.742C79.1902 104.692 79.2224 104.642 79.2536 104.589C80.3139 102.744 81.1502 100.739 81.7225 98.6228C82.2838 96.5599 82.5744 94.4083 82.5891 92.2138C82.5928 92.1441 82.5928 92.0692 82.5928 92.0029V91.9337" fill="#C3C3C3" fill-opacity="0.8"/>
<path d="M41.6551 75.0729C41.7539 75.3926 41.8772 75.7014 42.0388 75.9829C42.2287 76.3155 42.4612 76.6171 42.7282 76.8871C42.9952 77.162 43.3004 77.4001 43.6331 77.5905C43.961 77.7828 44.3158 77.9293 44.7024 78.0352C44.7052 78.0395 44.708 78.0395 44.7123 78.0419C45.0374 78.1326 45.3842 78.1793 45.7452 78.196C45.8066 78.196 45.8752 78.2027 45.9389 78.2027C45.9947 78.2027 46.0486 78.196 46.1024 78.196C46.4634 78.1822 46.8136 78.1326 47.1462 78.0419C47.5299 77.9322 47.8904 77.7828 48.2202 77.5905C48.5468 77.4001 48.8463 77.162 49.1161 76.8871C49.3841 76.6171 49.6151 76.315 49.807 75.9829C49.9067 75.8121 49.9927 75.6288 50.0711 75.437C50.1396 75.2681 50.2001 75.093 50.2459 74.9178C50.2677 74.8434 50.2842 74.7661 50.2998 74.6821C50.3683 74.3786 50.4014 74.0584 50.4014 73.7368C50.4014 73.5612 50.3877 73.3933 50.3683 73.2243C50.3428 72.9996 50.3083 72.7729 50.2459 72.5491C50.1415 72.1669 49.9927 71.8162 49.8018 71.4846C49.6052 71.151 49.3765 70.8523 49.1072 70.5846C48.8392 70.3054 48.5368 70.0721 48.207 69.8765C48.1697 69.8588 48.1276 69.8397 48.0818 69.8159C47.7836 69.6551 47.4751 69.5234 47.1349 69.4303C47.0319 69.4012 46.9341 69.3778 46.8334 69.3549C46.8159 69.3549 46.7961 69.3516 46.7819 69.3473C46.5069 69.2953 46.2215 69.2681 45.9281 69.2681C45.5014 69.2681 45.0993 69.3196 44.7161 69.4303C44.3277 69.5343 43.9709 69.687 43.6368 69.8769C43.3023 70.0726 43.006 70.3059 42.732 70.5851C42.4631 70.8528 42.233 71.1515 42.0412 71.485C41.8526 71.8167 41.7028 72.1707 41.5989 72.553C41.596 72.5725 41.5932 72.5973 41.5823 72.6183C41.5039 72.9452 41.4552 73.2773 41.4491 73.6237C41.4491 73.6624 41.4453 73.6987 41.4453 73.7373C41.4453 74.1472 41.5001 74.5342 41.5989 74.9183C41.6145 74.9732 41.6343 75.0238 41.6546 75.0734" fill="#D2D2D2" fill-opacity="0.9"/>
</g>
<defs>
<clipPath id="clip0_391_1033">
<rect width="121" height="50" fill="white" transform="translate(32.5 67)"/>
</clipPath>
</defs>
</svg>
