<svg width="185" height="184" viewBox="0 0 185 184" fill="none" xmlns="http://www.w3.org/2000/svg">
<g clip-path="url(#clip0_391_1039)">
<path d="M28.3287 82.595C30.5069 82.595 32.2054 80.9209 32.2054 78.8637C32.2054 76.8065 30.4637 75 28.3287 75C26.1936 75 24.5 76.6741 24.5 78.8637C24.5 81.0533 26.1553 82.595 28.3287 82.595Z" fill="#C3C3C3" fill-opacity="0.8"/>
<path d="M149.705 108C151.23 108 152.228 107.187 152.228 105.555V96.7588C152.228 93.4532 154.579 91.4811 158.586 91.4811H160.5V86.5486H159.109C156.019 86.5486 153.884 87.5796 152.315 89.8117H152.228V86.5486H147.176V105.56C147.176 107.191 148.179 108.005 149.7 108.005L149.705 108ZM130.158 103.28C126.718 103.28 124.022 100.49 124.022 97.0142C124.022 93.5383 126.723 90.7481 130.158 90.7481C133.594 90.7481 136.295 93.5383 136.295 97.0142C136.295 100.49 133.594 103.28 130.158 103.28ZM129.722 108C132.509 108 134.64 106.884 136.122 104.827H136.208V105.555C136.208 107.187 137.211 108 138.732 108C140.253 108 141.256 107.187 141.256 105.555V86.5439H136.204V89.2064H136.117C134.635 87.1445 132.504 86.0331 129.717 86.0331C123.84 86.0331 118.879 91.0555 118.879 97.0189C118.879 102.982 123.84 108.005 129.717 108.005L129.722 108ZM111.523 108C113.001 108 114.004 107.229 114.047 105.683V76.887H108.995V105.678C109.038 107.224 110.041 107.995 111.519 107.995L111.523 108ZM95.2827 108C99.1594 108 102.772 105.985 104.816 102.722L100.896 99.9747C99.6775 102.037 97.5857 103.28 95.2779 103.28C91.8379 103.28 89.1415 100.49 89.1415 97.0142C89.1415 93.5383 91.8427 90.7481 95.2779 90.7481C97.5857 90.7481 99.6727 91.9919 100.896 94.0538L104.816 91.3061C102.772 88.043 99.1546 86.0284 95.2827 86.0284C89.0551 86.0284 84.0077 90.9609 84.0077 97.0142C84.0077 103.068 89.0599 108 95.2827 108ZM69.3359 103.28C65.8958 103.28 63.1995 100.49 63.1995 97.0142C63.1995 93.5383 65.9006 90.7481 69.3359 90.7481C72.7712 90.7481 75.4724 93.5383 75.4724 97.0142C75.4724 100.49 72.7712 103.28 69.3359 103.28ZM45.3034 108C47.0451 108 48.2205 107.229 49.1801 104.869L56.492 86.5486H51.1376L45.5194 101.483H45.433L39.8627 86.5486H34.2444L41.5131 104.917C42.4295 107.234 43.557 108.005 45.2986 108.005L45.3034 108ZM28.367 108C29.8927 108 30.8907 107.187 30.8907 105.555V86.5439H25.8481V105.555C25.8481 107.187 26.8509 108 28.3718 108H28.367ZM69.3311 108C75.5587 108 80.6061 103.068 80.6061 97.0142C80.6061 90.9609 75.5539 86.0284 69.3311 86.0284C63.1083 86.0284 58.0561 90.9609 58.0561 97.0142C58.0561 103.068 63.1083 108 69.3311 108Z" fill="#C3C3C3" fill-opacity="0.8"/>
</g>
<defs>
<clipPath id="clip0_391_1039">
<rect width="136" height="33" fill="white" transform="translate(24.5 75)"/>
</clipPath>
</defs>
</svg>
