<svg width="185" height="184" viewBox="0 0 185 184" fill="none" xmlns="http://www.w3.org/2000/svg">
<g clip-path="url(#clip0_391_1030)">
<path d="M13.823 88.9982C14.6528 88.9982 15.5231 89.4512 16.4339 90.3572L16.8184 90.7484L18.8019 88.6688L18.4174 88.2775C16.9399 86.8362 15.4422 86.0949 13.9242 86.0949C12.6086 86.0949 11.5157 86.5273 10.6454 87.3921C9.77509 88.2363 9.32982 89.3277 9.32982 90.6249C9.32982 91.6132 9.61317 92.4987 10.1596 93.2811C10.7061 94.043 11.6574 94.7842 13.0741 95.5255C14.5314 96.2874 15.0981 96.7404 15.3005 96.9875C15.5636 97.3169 15.7053 97.6876 15.7053 98.12C15.7053 98.6347 15.5029 99.0671 15.0778 99.4584C14.6326 99.8702 14.1266 100.056 13.4992 100.056C12.5681 100.056 11.6776 99.5613 10.8073 98.573L10.4025 98.0994L8.5 100.303L8.78335 100.673C9.35006 101.394 10.0584 101.97 10.9085 102.403C11.7586 102.815 12.6491 103.021 13.5801 103.021C14.9969 103.021 16.2113 102.526 17.1625 101.579C18.1138 100.611 18.5995 99.4378 18.5995 98.0582C18.5995 97.0698 18.3162 96.1638 17.7495 95.3608C17.1828 94.5989 16.191 93.8371 14.6731 93.0546C13.317 92.3545 12.7705 91.8809 12.5479 91.6132C12.2646 91.2632 12.1229 90.9338 12.1229 90.5631C12.1229 90.1719 12.2848 89.8218 12.6086 89.513C12.9527 89.1629 13.3372 88.9982 13.823 88.9982ZM27.5251 93.9606L22.7284 86.0949H19.1662L26.0477 97.4199V103H29.1038V97.3993L35.8436 86.0949H32.2612L27.5251 93.9606ZM57.9047 86.9803C57.0344 86.4038 56.0224 86.0949 54.9092 86.0949C53.7151 86.0949 52.5817 86.4244 51.5495 87.1038C50.8006 87.598 50.1327 88.2363 49.566 89.0394C49.3433 88.5658 49.1005 88.1746 48.8171 87.8451C48.3516 87.3098 47.7647 86.8773 47.0563 86.5685C46.3479 86.2596 45.5788 86.0949 44.8097 86.0949C43.656 86.0949 42.5429 86.4244 41.4904 87.0627C41.0856 87.3303 40.6808 87.6598 40.276 88.0716V86.4655H37.2806V102.588H40.276V95.6902C40.276 93.8988 40.438 92.5604 40.782 91.7162C41.1059 90.8926 41.6119 90.2748 42.2798 89.7807C42.9679 89.3071 43.656 89.0806 44.4251 89.0806C45.0728 89.0806 45.6193 89.2453 46.0848 89.5748C46.5503 89.9042 46.8539 90.316 47.036 90.872C47.1777 91.2838 47.3396 92.2104 47.3396 94.393V102.629H50.3351V96.1844C50.3351 94.1047 50.497 92.6222 50.8208 91.778C51.1447 90.9543 51.6304 90.316 52.2983 89.8218C52.9662 89.3277 53.6948 89.1012 54.5044 89.1012C55.1521 89.1012 55.6986 89.2453 56.1641 89.5542C56.6093 89.863 56.9332 90.2543 57.1153 90.7484C57.257 91.1191 57.4189 91.9633 57.4189 93.8782V102.629H60.4548V93.8577C60.4548 91.8809 60.2525 90.4396 59.8477 89.4306C59.4429 88.3805 58.775 87.5568 57.9047 86.9803ZM71.8699 86.0949C70.6151 86.0949 69.4412 86.3626 68.3887 86.8979C67.7208 87.2274 67.0934 87.6804 66.5065 88.2363V80.6795H63.511V102.609H66.5065V100.797C67.0529 101.353 67.6601 101.806 68.3078 102.156C69.3602 102.712 70.5341 103 71.8295 103C74.076 103 76.019 102.176 77.5977 100.529C79.1966 98.8818 79.986 96.8845 79.986 94.5783C79.986 92.231 79.1966 90.2131 77.618 88.5864C76.019 86.9185 74.0963 86.0949 71.8699 86.0949ZM76.2417 97.2757C75.7559 98.1406 75.1083 98.8201 74.3189 99.2936C73.5093 99.7672 72.6188 100.014 71.6675 100.014C70.1698 100.014 68.9352 99.4996 67.903 98.4288C66.8708 97.3581 66.3648 96.0609 66.3648 94.4548C66.3648 93.4047 66.5874 92.4781 67.0529 91.6544C67.4982 90.8308 68.1661 90.1719 68.9959 89.6983C69.846 89.2041 70.7568 88.957 71.6878 88.957C72.5986 88.957 73.4891 89.2041 74.2987 89.6983C75.1083 90.1925 75.7559 90.872 76.2417 91.7574C76.7274 92.6428 76.9703 93.5694 76.9703 94.5372C76.9501 95.4843 76.7072 96.4109 76.2417 97.2757ZM83.5481 80.2883C82.9814 80.2883 82.4754 80.4942 82.0707 80.9266C81.6659 81.3384 81.4432 81.8532 81.4432 82.4503C81.4432 83.0269 81.6456 83.5416 82.0707 83.9534C82.4754 84.3653 82.9814 84.5918 83.5481 84.5918C84.1351 84.5918 84.6411 84.3859 85.0459 83.9534C85.4507 83.5416 85.6733 83.0269 85.6733 82.4503C85.6733 81.8532 85.4709 81.3384 85.0459 80.9266C84.6411 80.4942 84.1351 80.2883 83.5481 80.2883ZM82.0707 102.609H85.0661V86.4861H82.0707V102.609ZM95.449 86.0949C93.0202 86.0949 90.976 87.0009 89.3771 88.8129C87.9199 90.4396 87.1913 92.3751 87.1913 94.5989C87.1913 96.8433 87.9604 98.8201 89.4986 100.488C91.0368 102.176 93.0405 103.021 95.449 103.021C97.8575 103.021 99.841 102.176 101.379 100.488C102.897 98.8201 103.686 96.8433 103.686 94.5989C103.686 92.3751 102.958 90.419 101.501 88.7923C99.9219 87.0009 97.8777 86.0949 95.449 86.0949ZM99.9624 97.3993C99.4969 98.2435 98.8695 98.9024 98.0599 99.3554C97.2705 99.8084 96.38 100.056 95.4287 100.056C94.4775 100.056 93.5869 99.829 92.7976 99.3554C92.0083 98.9024 91.3606 98.2435 90.8951 97.3993C90.4296 96.5551 90.1867 95.6079 90.1867 94.6401C90.1867 93.0958 90.6927 91.7986 91.7451 90.7073C92.7774 89.6159 93.9917 89.1012 95.4287 89.1012C96.8657 89.1012 98.0599 89.6365 99.1123 90.7073C100.165 91.7986 100.671 93.0752 100.671 94.6401C100.671 95.6079 100.428 96.5345 99.9624 97.3993ZM110.77 80.906H107.775V86.4861H105.184V89.2659H107.775V102.629H110.77V89.2453H113.786V86.4861H110.77V80.906ZM123.46 93.8577L118.664 85.9714H115.102L121.983 97.2963V103H125.039V97.2963L131.759 85.9919H128.176L123.46 93.8577ZM147.161 86.4861H142.708L136.616 91.8809V80.6795H133.621V102.609H136.616V96.5345L143.295 102.609H147.586L138.417 94.2077L147.161 86.4861ZM160.438 88.2981C159.892 87.7422 159.284 87.2892 158.657 86.9391C157.605 86.3832 156.41 86.0949 155.115 86.0949C152.868 86.0949 150.926 86.9185 149.347 88.5658C147.748 90.2131 146.959 92.2104 146.959 94.496C146.959 96.8433 147.748 98.8612 149.327 100.509C150.905 102.156 152.828 102.979 155.075 102.979C156.329 102.979 157.503 102.712 158.576 102.176C159.244 101.847 159.892 101.394 160.479 100.838V102.588H163.434V86.4861H160.479V88.2981H160.438ZM159.892 97.4199C159.446 98.2435 158.778 98.9024 157.949 99.376C156.269 100.344 154.265 100.344 152.646 99.376C151.836 98.8818 151.168 98.2023 150.703 97.3169C150.217 96.4315 149.974 95.5049 149.974 94.5577C149.974 93.59 150.217 92.6634 150.703 91.7986C151.189 90.9338 151.836 90.2543 152.646 89.7807C153.455 89.3071 154.346 89.06 155.297 89.06C156.795 89.06 158.03 89.5748 159.062 90.6455C160.094 91.7162 160.6 93.0134 160.6 94.6195C160.56 95.6697 160.337 96.5962 159.892 97.4199ZM176.63 83.2739C176.063 82.265 175.274 81.4414 174.282 80.8648C173.29 80.2883 172.217 80 171.084 80C169.951 80 168.858 80.2883 167.866 80.8648C166.874 81.4414 166.085 82.2444 165.518 83.2739C164.951 84.2829 164.648 85.3948 164.648 86.5479C164.648 87.701 164.931 88.7923 165.518 89.8013C166.085 90.8102 166.874 91.6132 167.866 92.1898C168.858 92.7663 169.93 93.0752 171.064 93.0752C172.197 93.0752 173.27 92.7869 174.262 92.1898C175.253 91.6132 176.043 90.8102 176.609 89.8013C177.176 88.7923 177.46 87.701 177.46 86.5273C177.5 85.3742 177.217 84.2829 176.63 83.2739ZM175.537 89.1629C175.294 89.5953 175.011 89.966 174.666 90.316L174.363 89.8218C174.221 89.5953 174.14 89.3071 174.14 88.9776V88.154C174.14 87.598 174.08 87.2068 173.958 86.9597C173.857 86.7744 173.715 86.6303 173.513 86.4861C173.756 86.3008 173.918 86.1155 173.999 85.9508C174.14 85.6625 174.221 85.2919 174.221 84.9006C174.221 84.427 174.12 84.0152 173.897 83.6652C173.675 83.3151 173.412 83.0474 173.068 82.8827C172.723 82.718 172.217 82.6562 171.489 82.6562H168.311V90.3572H169.849V87.2892H171.428C171.975 87.2892 172.177 87.3303 172.258 87.3715C172.359 87.4127 172.44 87.4745 172.501 87.5774C172.541 87.6392 172.602 87.7833 172.622 88.1746L172.683 89.0806C172.723 89.513 172.784 89.8836 172.865 90.1925L172.906 90.3366H174.646C174.343 90.6249 174.019 90.872 173.654 91.0985C172.056 92.0457 170.113 92.0457 168.514 91.0985C167.704 90.6249 167.077 89.9866 166.611 89.1835C166.146 88.3805 165.923 87.4951 165.923 86.5685C165.923 85.6419 166.146 84.7359 166.611 83.9329C167.077 83.1092 167.704 82.4709 168.514 81.9973C169.323 81.5237 170.194 81.2972 171.104 81.2972C172.015 81.2972 172.865 81.5443 173.654 81.9973C174.444 82.4709 175.071 83.1092 175.537 83.9329C176.002 84.7565 176.225 85.6419 176.225 86.5479C176.225 87.4745 176.002 88.3599 175.537 89.1629ZM172.683 84.9624C172.683 85.3124 172.582 85.5595 172.359 85.6831C172.258 85.7449 171.995 85.8272 171.388 85.8272H169.829V84.077H171.448C172.076 84.077 172.339 84.2005 172.44 84.2829C172.602 84.427 172.683 84.6535 172.683 84.9624Z" fill="#C3C3C3"/>
</g>
<defs>
<clipPath id="clip0_391_1030">
<rect width="169" height="23" fill="white" transform="translate(8.5 80)"/>
</clipPath>
</defs>
</svg>
