<svg width="32" height="33" viewBox="0 0 32 33" fill="none" xmlns="http://www.w3.org/2000/svg">
<path d="M5.33333 8.50002L13.4768 14.6497L13.4796 14.652C14.3838 15.3151 14.8362 15.6468 15.3317 15.775C15.7696 15.8883 16.23 15.8883 16.668 15.775C17.1639 15.6467 17.6176 15.314 18.5234 14.6497C18.5234 14.6497 23.7468 10.6413 26.6667 8.50002M4 21.5669V11.4336C4 9.94014 4 9.19285 4.29065 8.62242C4.54631 8.12065 4.95396 7.713 5.45573 7.45734C6.02616 7.16669 6.77345 7.16669 8.26693 7.16669H23.7336C25.2271 7.16669 25.9728 7.16669 26.5432 7.45734C27.045 7.713 27.454 8.12065 27.7096 8.62242C28 9.19229 28 9.93868 28 11.4292V21.5715C28 23.062 28 23.8073 27.7096 24.3772C27.454 24.879 27.045 25.2873 26.5432 25.543C25.9733 25.8334 25.228 25.8334 23.7375 25.8334H8.26255C6.77199 25.8334 6.0256 25.8334 5.45573 25.543C4.95396 25.2873 4.54631 24.879 4.29065 24.3772C4 23.8068 4 23.0604 4 21.5669Z" stroke="white" stroke-width="2" stroke-linecap="round" stroke-linejoin="round"/>
</svg>
